<?xml version="1.0" encoding="UTF-8" standalone="no"?>
<svg
   xmlns:dc="http://purl.org/dc/elements/1.1/"
   xmlns:cc="http://creativecommons.org/ns#"
   xmlns:rdf="http://www.w3.org/1999/02/22-rdf-syntax-ns#"
   xmlns:svg="http://www.w3.org/2000/svg"
   xmlns="http://www.w3.org/2000/svg"
   viewBox="0 0 666.66669 666.66669"
   height="666.66669"
   width="666.66669"
   xml:space="preserve"
   id="svg2"
   version="1.1"><metadata
     id="metadata8"><rdf:RDF><cc:Work
         rdf:about=""><dc:format>image/svg+xml</dc:format><dc:type
           rdf:resource="http://purl.org/dc/dcmitype/StillImage" /></cc:Work></rdf:RDF></metadata><defs
     id="defs6"><clipPath
       id="clipPath20"
       clipPathUnits="userSpaceOnUse"><path
         id="path18"
         d="M 0,4980 H 3979 V 0 H 0 Z" /></clipPath><pattern
       id="pattern368"
       height="498"
       width="397.832"
       y="0"
       x="0"
       patternUnits="userSpaceOnUse"
       patternTransform="matrix(10,0,0,10,0,20)"><g
         id="g366"
         transform="scale(0.1)"><g
           id="g364"><g
             id="g362"
             clip-path="url(#clipPath20)"><path
               id="path22"
               style="fill:#f47520;fill-opacity:1;fill-rule:nonzero;stroke:none"
               d="m 2486.4,-133.199 497.38,497.379 -994.62,-0.137 497.24,-497.242 z" /><path
               id="path24"
               style="fill:#0d1d22;fill-opacity:1;fill-rule:nonzero;stroke:none"
               d="m 2222.26,267.516 528.35,0.058 L 2486.4,3.37109 2222.26,267.516 Z" /><path
               id="path26"
               style="fill:#dfbe19;fill-opacity:1;fill-rule:nonzero;stroke:none"
               d="m 2373.9,204.715 225.04,0.031 L 2486.4,92.207 2373.9,204.715 Z" /><path
               id="path28"
               style="fill:#f47520;fill-opacity:1;fill-rule:nonzero;stroke:none"
               d="m 3978.32,364.238 0,-0.195 -497.32,-497.324 -497.13,497.324 994.45,0.195" /><path
               id="path30"
               style="fill:#0d1d22;fill-opacity:1;fill-rule:nonzero;stroke:none"
               d="m 3216.9,267.516 528.43,0.113 L 3481.01,3.29297 3216.9,267.516 Z" /><path
               id="path32"
               style="fill:#dfbe19;fill-opacity:1;fill-rule:nonzero;stroke:none"
               d="m 3368.48,204.734 225.18,0.051 L 3481.02,92.1445 3368.48,204.734 Z" /><path
               id="path34"
               style="fill:#f47520;fill-opacity:1;fill-rule:nonzero;stroke:none"
               d="m 2488.28,-296.664 -498.95,-0.106 0,499.063 0.1,0.105 498.85,-499.062" /><path
               id="path36"
               style="fill:#0d1d22;fill-opacity:1;fill-rule:nonzero;stroke:none"
               d="m 2254.41,-199.793 -265.08,0 0,264.9766 0.1,0.1016 264.98,-265.0782" /><path
               id="path38"
               style="fill:#f47520;fill-opacity:1;fill-rule:nonzero;stroke:none"
               d="m 2484.67,-296.895 0,0.196 499.19,499.187 498.99,-499.187 -998.18,-0.196" /><path
               id="path40"
               style="fill:#0d1d22;fill-opacity:1;fill-rule:nonzero;stroke:none"
               d="m 3248.95,-199.809 -530.42,-0.117 265.32,265.3283 265.1,-265.2113 z" /><path
               id="path42"
               style="fill:#f47520;fill-opacity:1;fill-rule:nonzero;stroke:none"
               d="m 3978.32,202.398 0,-499.168 -499.06,-0.105 0,0.211 499.06,499.062" /><path
               id="path44"
               style="fill:#0d1d22;fill-opacity:1;fill-rule:nonzero;stroke:none"
               d="m 3978.32,65.2578 0,-265.1368 -265.24,0 265.24,265.1368 z" /><path
               id="path46"
               style="fill:#ffffff;fill-opacity:1;fill-rule:nonzero;stroke:none"
               d="m 3978.32,541.969 0,-63.004 -1989.13,0 0,63.004 1989.13,0" /><path
               id="path48"
               style="fill:#ee2b27;fill-opacity:1;fill-rule:nonzero;stroke:none"
               d="m 2561.54,702.832 -0.06,7.316 -0.23,15.688 -0.45,31.371 -1.8,125.492 -3.58,250.991 c -0.02,6.72 -5.39,12.8 -11.76,13.81 -0.79,0.09 -1.59,0.2 -2.43,0.18 l -7.17,-0.01 -15.69,-0.1 -31.37,-0.2 -125.5,-0.81 -250.98,-0.99 c -5.51,0.03 -10.56,-4.38 -11.43,-9.61 -0.08,-0.66 -0.17,-1.31 -0.16,-2.02 l -0.02,-7.12 0.06,-15.69 0.11,-31.37 0.07,-125.494 c 0.22,-83.661 -0.91,-167.325 -1.29,-250.985 -0.45,-5.871 3.82,-11.84 9.93,-13.742 0.77,-0.191 1.56,-0.394 2.41,-0.476 1.29,-0.172 4.87,-0.153 7.18,-0.305 l 15.69,-0.703 31.37,-1.403 c 41.84,-1.816 83.66,-4.207 125.5,-5.336 83.66,-2.468 167.32,-0.957 250.98,0.286 10.09,0.136 19,8.187 20.38,17.656 0.15,1.18 0.27,2.359 0.24,3.574 z m 56.03,430.858 -3.58,-250.991 -1.8,-125.492 -0.45,-31.371 -0.23,-15.688 -0.16,-8.371 c -0.11,-4.027 -0.61,-8.035 -1.38,-12.007 -3.27,-15.891 -12.16,-30.391 -24.61,-40.465 -12.45,-10.094 -28.56,-15.621 -44.44,-15.492 -83.66,1.242 -167.32,2.757 -250.98,0.289 -41.84,-1.133 -83.66,-3.524 -125.5,-5.34 l -31.37,-1.403 -15.69,-0.703 c -2.91,-0.105 -4.57,-0.226 -8.5,-0.207 -4.39,-0.004 -8.79,0.418 -13.17,1.153 -17.48,3.121 -33.92,12.406 -45.37,26.128 -11.52,13.641 -18.12,31.622 -18.31,49.551 -0.39,83.66 -1.52,167.324 -1.29,250.985 l 0.07,125.494 0.11,31.37 0.05,15.69 0.09,8.56 c 0.09,4.54 0.61,9.06 1.46,13.56 3.56,17.99 13.5,34.49 27.54,46.02 14.03,11.56 32.36,18.02 50.46,17.99 l 250.98,-1 125.5,-0.8 31.37,-0.21 15.69,-0.1 8.51,-0.1 c 4.4,-0.1 8.78,-0.62 13.14,-1.44 17.43,-3.48 33.4,-13.14 44.54,-26.76 11.17,-13.61 17.38,-31.35 17.32,-48.85" /><path
               id="path50"
               style="fill:#f47520;fill-opacity:1;fill-rule:nonzero;stroke:none"
               d="m 2431.23,814.523 c -0.37,0.165 -0.86,0.153 -1.33,-0.039 0.45,0.012 0.89,0.028 1.33,0.039 z m -2.62,-0.078 -0.05,1.895 -0.23,7.687 -0.45,15.383 -1.8,61.528 -3.31,113.492 -2.6,-0.05 -15.38,-0.29 -61.53,-0.54 -111.37,-0.82 0.11,-15.175 0.07,-61.528 c 0.21,-38.339 -0.74,-76.679 -1.18,-115.019 l 0.38,-0.031 15.38,-1.407 c 20.51,-1.812 41.02,-4.207 61.53,-5.336 40.14,-2.418 80.28,-1.015 120.43,0.211 z m -208.22,7.516 c -0.04,-0.125 2.05,-0.145 3.07,-0.277 -0.51,0.109 -0.99,0.336 -1.51,0.336 -0.54,0.043 -1.07,0 -1.56,-0.059 z m 264.26,202.029 -3.58,-123.052 -1.8,-61.528 -0.45,-15.383 -0.22,-7.687 -0.15,-4.375 c -0.08,-2.692 -0.42,-5.375 -0.96,-8.035 -4.17,-21.629 -24.75,-37.864 -46.26,-37.2 -41.02,1.247 -82.04,2.758 -123.05,0.29 -20.51,-1.129 -41.02,-3.524 -61.53,-5.336 l -15.38,-1.407 -7.7,-0.699 c -1.57,-0.121 -1.9,-0.203 -4.5,-0.234 -3.06,-0.024 -6.13,0.242 -9.2,0.738 -12.25,2.086 -23.86,8.488 -31.91,18.098 -8.12,9.515 -12.85,22.199 -13.01,34.793 -0.39,41.015 -1.51,82.035 -1.29,123.054 l 0.07,61.528 0.11,15.385 0.05,7.69 0.06,4.56 c 0.07,3.2 0.44,6.41 1.05,9.59 4.67,25.87 29.13,45.75 55.21,45.25 l 123.05,-0.9 61.53,-0.54 15.38,-0.29 7.69,-0.15 4.52,-0.1 c 3.08,-0.09 6.16,-0.46 9.21,-1.05 24.81,-4.62 43.67,-28.15 43.06,-53.01" /><path
               id="path52"
               style="fill:#ffffff;fill-opacity:1;fill-rule:nonzero;stroke:none"
               d="m 2349.93,964.055 -48.42,0 c -11.8,0 -21.36,-9.563 -21.36,-21.364 l 0,-48.418 c 0,-11.796 9.56,-21.363 21.36,-21.363 l 48.42,0 c 11.8,0 21.36,9.567 21.36,21.363 l 0,48.418 c 0,11.801 -9.56,21.364 -21.36,21.364" /><path
               id="path54"
               style="fill:#ee2b27;fill-opacity:1;fill-rule:nonzero;stroke:none"
               d="m 2750.07,1136.56 0.07,-7.31 0.22,-15.69 0.45,-31.37 1.8,-125.495 3.59,-250.988 c 0.01,-6.727 5.39,-12.805 11.75,-13.809 0.8,-0.097 1.59,-0.203 2.43,-0.187 l 7.18,0.008 15.69,0.101 31.37,0.203 125.49,0.809 250.99,0.992 c 5.51,-0.027 10.55,4.375 11.42,9.61 0.08,0.656 0.18,1.316 0.17,2.015 l 0.01,7.125 -0.06,15.688 -0.11,31.375 -0.07,125.492 c -0.22,83.66 0.91,167.321 1.3,250.991 0.45,5.86 -3.82,11.83 -9.93,13.74 -0.78,0.19 -1.57,0.39 -2.42,0.47 -1.29,0.18 -4.86,0.15 -7.18,0.31 l -15.69,0.7 -31.37,1.4 c -41.83,1.82 -83.66,4.21 -125.49,5.34 -83.66,2.47 -167.33,0.95 -250.99,-0.29 -10.09,-0.14 -19,-8.18 -20.37,-17.65 -0.15,-1.18 -0.28,-2.36 -0.25,-3.58 z m -56.03,-430.853 3.59,250.988 1.8,125.495 0.45,31.37 0.22,15.69 0.17,8.37 c 0.1,4.02 0.6,8.03 1.38,12.01 3.26,15.89 12.15,30.39 24.6,40.46 12.45,10.1 28.56,15.62 44.44,15.49 83.66,-1.24 167.33,-2.76 250.99,-0.29 41.83,1.13 83.66,3.53 125.49,5.34 l 31.37,1.41 15.69,0.7 c 2.91,0.1 4.57,0.23 8.51,0.21 4.39,0 8.78,-0.42 13.16,-1.16 17.49,-3.12 33.93,-12.41 45.38,-26.12 11.52,-13.65 18.12,-31.63 18.3,-49.55 0.39,-83.67 1.52,-167.331 1.3,-250.991 l -0.07,-125.492 -0.11,-31.375 -0.06,-15.688 -0.08,-8.558 c -0.09,-4.539 -0.62,-9.067 -1.47,-13.563 -3.55,-17.988 -13.5,-34.492 -27.54,-46.019 -14.03,-11.563 -32.35,-18.016 -50.45,-17.989 l -250.99,0.996 -125.49,0.805 -31.37,0.203 -15.69,0.102 -8.51,0.105 c -4.4,0.094 -8.79,0.614 -13.15,1.442 -17.43,3.48 -33.4,13.14 -44.54,26.761 -11.17,13.606 -17.38,31.34 -17.32,48.848" /><path
               id="path56"
               style="fill:#f47520;fill-opacity:1;fill-rule:nonzero;stroke:none"
               d="m 2880.38,1024.87 c 0.38,-0.16 0.86,-0.15 1.33,0.04 -0.44,-0.01 -0.89,-0.02 -1.33,-0.04 z m 2.62,0.08 0.06,-1.89 0.22,-7.7 0.45,-15.376 1.8,-61.527 3.31,-113.492 2.6,0.047 15.38,0.293 61.53,0.543 111.37,0.812 -0.11,15.18 -0.07,61.527 c -0.2,38.34 0.74,76.68 1.18,115.013 l -0.37,0.04 -15.38,1.4 c -20.51,1.82 -41.02,4.21 -61.53,5.34 -40.14,2.42 -80.29,1.02 -120.44,-0.21 z m 208.22,-7.51 c 0.05,0.12 -2.05,0.14 -3.07,0.27 0.51,-0.11 0.99,-0.34 1.52,-0.33 0.54,-0.05 1.07,-0.01 1.55,0.06 z m -264.26,-202.042 3.59,123.059 1.79,61.527 0.45,15.376 0.23,7.7 0.14,4.37 c 0.09,2.69 0.43,5.37 0.97,8.04 4.16,21.63 24.75,37.86 46.25,37.19 41.02,-1.24 82.04,-2.75 123.06,-0.29 20.51,1.14 41.02,3.53 61.53,5.34 l 15.38,1.41 7.69,0.7 c 1.58,0.12 1.9,0.2 4.51,0.23 3.05,0.02 6.13,-0.24 9.19,-0.74 12.26,-2.08 23.86,-8.49 31.91,-18.1 8.13,-9.51 12.86,-22.19 13.02,-34.79 0.38,-41.014 1.51,-82.033 1.29,-123.053 l -0.07,-61.527 -0.11,-15.383 -0.06,-7.691 -0.06,-4.563 c -0.07,-3.203 -0.43,-6.406 -1.05,-9.59 -4.67,-25.867 -29.12,-45.746 -55.2,-45.246 l -123.06,0.895 -61.53,0.543 -15.38,0.293 -7.69,0.148 -4.52,0.102 c -3.07,0.082 -6.15,0.453 -9.2,1.05 -24.82,4.618 -43.68,28.145 -43.07,53" /><path
               id="path58"
               style="fill:#ffffff;fill-opacity:1;fill-rule:nonzero;stroke:none"
               d="m 2961.68,875.34 48.43,0 c 11.79,0 21.36,9.562 21.36,21.359 l 0,48.422 c 0,11.797 -9.57,21.363 -21.36,21.363 l -48.43,0 c -11.79,0 -21.36,-9.566 -21.36,-21.363 l 0,-48.422 c 0,-11.797 9.57,-21.359 21.36,-21.359" /><path
               id="path60"
               style="fill:#ee2b27;fill-opacity:1;fill-rule:nonzero;stroke:none"
               d="m 3888.21,702.832 -0.07,7.316 -0.23,15.688 -0.45,31.371 -1.79,125.492 -3.59,250.991 c -0.02,6.72 -5.39,12.8 -11.75,13.81 -0.8,0.09 -1.6,0.2 -2.44,0.18 l -7.17,-0.01 -15.69,-0.1 -31.37,-0.2 -125.49,-0.81 -250.99,-0.99 c -5.51,0.03 -10.56,-4.38 -11.42,-9.61 -0.08,-0.66 -0.18,-1.31 -0.17,-2.02 l -0.01,-7.12 0.05,-15.69 0.12,-31.37 0.06,-125.494 c 0.23,-83.661 -0.9,-167.325 -1.29,-250.985 -0.45,-5.871 3.82,-11.84 9.93,-13.742 0.78,-0.191 1.57,-0.394 2.42,-0.476 1.28,-0.172 4.86,-0.153 7.18,-0.305 l 15.68,-0.703 31.38,-1.403 c 41.83,-1.816 83.66,-4.207 125.49,-5.336 83.66,-2.468 167.32,-0.957 250.99,0.286 10.08,0.136 18.99,8.187 20.37,17.656 0.15,1.18 0.28,2.359 0.25,3.574 z m 56.03,430.858 -3.59,-250.991 -1.8,-125.492 -0.45,-31.371 -0.22,-15.688 -0.17,-8.371 c -0.1,-4.027 -0.61,-8.035 -1.38,-12.007 -3.27,-15.891 -12.16,-30.391 -24.6,-40.465 -12.45,-10.094 -28.57,-15.621 -44.44,-15.492 -83.67,1.242 -167.33,2.757 -250.99,0.289 -41.83,-1.133 -83.66,-3.524 -125.49,-5.34 l -31.38,-1.403 -15.68,-0.703 c -2.91,-0.105 -4.57,-0.226 -8.51,-0.207 -4.39,-0.004 -8.78,0.418 -13.17,1.153 -17.48,3.121 -33.92,12.406 -45.37,26.128 -11.52,13.641 -18.12,31.622 -18.31,49.551 -0.38,83.66 -1.51,167.324 -1.29,250.985 l 0.07,125.494 0.11,31.37 0.06,15.69 0.08,8.56 c 0.09,4.54 0.62,9.06 1.46,13.56 3.56,17.99 13.5,34.49 27.55,46.02 14.03,11.56 32.35,18.02 50.45,17.99 l 250.99,-1 125.49,-0.8 31.37,-0.21 15.69,-0.1 8.51,-0.1 c 4.4,-0.1 8.79,-0.62 13.15,-1.44 17.43,-3.48 33.4,-13.14 44.54,-26.76 11.17,-13.61 17.37,-31.35 17.32,-48.85" /><path
               id="path62"
               style="fill:#f47520;fill-opacity:1;fill-rule:nonzero;stroke:none"
               d="m 3757.89,814.523 c -0.37,0.165 -0.86,0.153 -1.32,-0.039 0.44,0.012 0.88,0.028 1.32,0.039 z m -2.62,-0.078 -0.05,1.895 -0.23,7.687 -0.45,15.383 -1.79,61.528 -3.31,113.492 -2.6,-0.05 -15.39,-0.29 -61.52,-0.54 -111.38,-0.82 0.11,-15.175 0.07,-61.528 c 0.21,-38.339 -0.73,-76.679 -1.18,-115.019 l 0.38,-0.031 15.38,-1.407 c 20.51,-1.812 41.02,-4.207 61.53,-5.336 40.14,-2.418 80.29,-1.015 120.43,0.211 z m -208.22,7.516 c -0.04,-0.125 2.05,-0.145 3.08,-0.277 -0.51,0.109 -0.99,0.336 -1.52,0.336 -0.54,0.043 -1.07,0 -1.56,-0.059 z m 264.27,202.029 -3.59,-123.052 -1.8,-61.528 -0.45,-15.383 -0.22,-7.687 -0.14,-4.375 c -0.09,-2.692 -0.43,-5.375 -0.97,-8.035 -4.16,-21.629 -24.75,-37.864 -46.26,-37.2 -41.01,1.247 -82.03,2.758 -123.05,0.29 -20.51,-1.129 -41.02,-3.524 -61.53,-5.336 l -15.38,-1.407 -7.69,-0.699 c -1.58,-0.121 -1.91,-0.203 -4.51,-0.234 -3.06,-0.024 -6.13,0.242 -9.19,0.738 -12.26,2.086 -23.87,8.488 -31.91,18.098 -8.13,9.515 -12.86,22.199 -13.02,34.793 -0.38,41.015 -1.51,82.035 -1.29,123.054 l 0.07,61.528 0.11,15.385 0.06,7.69 0.06,4.56 c 0.07,3.2 0.43,6.41 1.04,9.59 4.68,25.87 29.13,45.75 55.21,45.25 l 123.06,-0.9 61.52,-0.54 15.39,-0.29 7.69,-0.15 4.51,-0.1 c 3.08,-0.09 6.16,-0.46 9.21,-1.05 24.81,-4.62 43.67,-28.15 43.07,-53.01" /><path
               id="path64"
               style="fill:#ffffff;fill-opacity:1;fill-rule:nonzero;stroke:none"
               d="m 3676.59,964.055 -48.42,0 c -11.8,0 -21.36,-9.563 -21.36,-21.364 l 0,-48.418 c 0,-11.796 9.56,-21.363 21.36,-21.363 l 48.42,0 c 11.8,0 21.37,9.567 21.37,21.363 l 0,48.418 c 0,11.801 -9.57,21.364 -21.37,21.364" /><path
               id="path66"
               style="fill:#f47520;fill-opacity:1;fill-rule:nonzero;stroke:none"
               d="M 497.242,-133.199 994.621,364.18 0,364.043 497.242,-133.199 Z" /><path
               id="path68"
               style="fill:#0d1d22;fill-opacity:1;fill-rule:nonzero;stroke:none"
               d="M 233.102,267.516 761.449,267.574 497.238,3.37109 233.102,267.516 Z" /><path
               id="path70"
               style="fill:#dfbe19;fill-opacity:1;fill-rule:nonzero;stroke:none"
               d="M 384.734,204.715 609.777,204.746 497.242,92.207 384.734,204.715 Z" /><path
               id="path72"
               style="fill:#f47520;fill-opacity:1;fill-rule:nonzero;stroke:none"
               d="m 1989.16,364.238 0,-0.195 -497.32,-497.324 -497.133,497.324 994.453,0.195" /><path
               id="path74"
               style="fill:#0d1d22;fill-opacity:1;fill-rule:nonzero;stroke:none"
               d="m 1227.74,267.516 528.43,0.113 L 1491.85,3.29297 1227.74,267.516 Z" /><path
               id="path76"
               style="fill:#dfbe19;fill-opacity:1;fill-rule:nonzero;stroke:none"
               d="m 1379.32,204.734 225.17,0.051 L 1491.86,92.1445 1379.32,204.734 Z" /><path
               id="path78"
               style="fill:#f47520;fill-opacity:1;fill-rule:nonzero;stroke:none"
               d="m 499.121,-296.664 -498.956937,-0.106 0,499.063 0.105468,0.105 L 499.121,-296.664" /><path
               id="path80"
               style="fill:#0d1d22;fill-opacity:1;fill-rule:nonzero;stroke:none"
               d="m 265.246,-199.793 -265.081937,0 0,264.9766 0.105468,0.1016 L 265.246,-199.793" /><path
               id="path82"
               style="fill:#f47520;fill-opacity:1;fill-rule:nonzero;stroke:none"
               d="m 495.508,-296.895 0,0.196 499.187,499.187 498.995,-499.187 -998.182,-0.196" /><path
               id="path84"
               style="fill:#0d1d22;fill-opacity:1;fill-rule:nonzero;stroke:none"
               d="M 1259.79,-199.809 729.371,-199.926 994.688,65.4023 1259.79,-199.809 Z" /><path
               id="path86"
               style="fill:#f47520;fill-opacity:1;fill-rule:nonzero;stroke:none"
               d="m 1989.16,202.398 0,-499.168 -499.06,-0.105 0,0.211 499.06,499.062" /><path
               id="path88"
               style="fill:#0d1d22;fill-opacity:1;fill-rule:nonzero;stroke:none"
               d="m 1989.16,65.2578 0,-265.1368 -265.24,0 265.24,265.1368 z" /><path
               id="path90"
               style="fill:#ffffff;fill-opacity:1;fill-rule:nonzero;stroke:none"
               d="m 1989.16,541.969 0,-63.004 -1989.12875,0 0,63.004 1989.12875,0" /><path
               id="path92"
               style="fill:#ee2b27;fill-opacity:1;fill-rule:nonzero;stroke:none"
               d="m 572.383,702.832 -0.07,7.316 -0.223,15.688 -0.449,31.371 -1.801,125.492 -3.586,250.991 c -0.016,6.72 -5.391,12.8 -11.75,13.81 -0.801,0.09 -1.598,0.2 -2.434,0.18 l -7.175,-0.01 -15.688,-0.1 -31.371,-0.2 -125.496,-0.81 -250.985,-0.99 c -5.507,0.03 -10.558,-4.38 -11.421,-9.61 -0.082,-0.66 -0.18,-1.31 -0.168,-2.02 l -0.012,-7.12 0.055,-15.69 0.113,-31.37 0.066,-125.494 c 0.223,-83.661 -0.906,-167.325 -1.293,-250.985 -0.453,-5.871 3.821,-11.84 9.934,-13.742 0.773,-0.191 1.562,-0.394 2.414,-0.476 1.285,-0.172 4.859,-0.153 7.18,-0.305 l 15.683,-0.703 31.375,-1.403 c 41.832,-1.816 83.66,-4.207 125.492,-5.336 83.665,-2.468 167.325,-0.957 250.989,0.286 10.086,0.136 19,8.187 20.375,17.656 0.148,1.18 0.273,2.359 0.246,3.574 z m 56.027,430.858 -3.586,-250.991 -1.797,-125.492 -0.449,-31.371 -0.226,-15.688 -0.168,-8.371 c -0.102,-4.027 -0.606,-8.035 -1.375,-12.007 -3.27,-15.891 -12.161,-30.391 -24.61,-40.465 -12.449,-10.094 -28.558,-15.621 -44.437,-15.492 -83.664,1.242 -167.324,2.757 -250.989,0.289 -41.832,-1.133 -83.66,-3.524 -125.492,-5.34 l -31.375,-1.403 -15.683,-0.703 c -2.91,-0.105 -4.571,-0.226 -8.504,-0.207 -4.395,-0.004 -8.789,0.418 -13.168,1.153 -17.4885,3.121 -33.9221,12.406 -45.3752,26.128 -11.5195,13.641 -18.1211,31.622 -18.3086,49.551 -0.3867,83.66 -1.5156,167.324 -1.293,250.985 l 0.0703,125.494 0.1133,31.37 0.0547,15.69 0.0859,8.56 c 0.086,4.54 0.6133,9.06 1.461,13.56 3.5547,17.99 13.5,34.49 27.5429,46.02 14.0274,11.56 32.3517,18.02 50.4527,17.99 l 250.985,-1 125.496,-0.8 31.371,-0.21 15.688,-0.1 8.507,-0.1 c 4.403,-0.1 8.793,-0.62 13.149,-1.44 17.429,-3.48 33.398,-13.14 44.539,-26.76 11.172,-13.61 17.379,-31.35 17.32,-48.85" /><path
               id="path94"
               style="fill:#f47520;fill-opacity:1;fill-rule:nonzero;stroke:none"
               d="m 442.07,814.523 c -0.375,0.165 -0.863,0.153 -1.328,-0.039 0.442,0.012 0.887,0.028 1.328,0.039 z m -2.621,-0.078 -0.054,1.895 -0.227,7.687 -0.449,15.383 -1.797,61.528 -3.309,113.492 -2.601,-0.05 -15.383,-0.29 -61.527,-0.54 -111.372,-0.82 0.11,-15.175 0.07,-61.528 c 0.203,-38.339 -0.738,-76.679 -1.18,-115.019 l 0.375,-0.031 15.379,-1.407 c 20.512,-1.812 41.02,-4.207 61.532,-5.336 40.14,-2.418 80.289,-1.015 120.433,0.211 z m -208.219,7.516 c -0.042,-0.125 2.047,-0.145 3.071,-0.277 -0.508,0.109 -0.988,0.336 -1.516,0.336 -0.539,0.043 -1.07,0 -1.555,-0.059 z m 264.262,202.029 -3.586,-123.052 -1.797,-61.528 -0.453,-15.383 -0.222,-7.687 -0.141,-4.375 c -0.086,-2.692 -0.43,-5.375 -0.965,-8.035 -4.164,-21.629 -24.754,-37.864 -46.258,-37.2 -41.019,1.247 -82.039,2.758 -123.054,0.29 -20.512,-1.129 -41.02,-3.524 -61.532,-5.336 l -15.379,-1.407 -7.695,-0.699 c -1.574,-0.121 -1.902,-0.203 -4.504,-0.234 -3.058,-0.024 -6.129,0.242 -9.195,0.738 -12.254,2.086 -23.863,8.488 -31.91,18.098 -8.125,9.515 -12.856,22.199 -13.012,34.793 -0.387,41.015 -1.516,82.035 -1.293,123.054 l 0.067,61.528 0.113,15.385 0.054,7.69 0.063,4.56 c 0.066,3.2 0.434,6.41 1.047,9.59 4.672,25.87 29.125,45.75 55.207,45.25 l 123.055,-0.9 61.527,-0.54 15.383,-0.29 7.691,-0.15 4.516,-0.1 c 3.078,-0.09 6.156,-0.46 9.207,-1.05 24.812,-4.62 43.672,-28.15 43.066,-53.01" /><path
               id="path96"
               style="fill:#ffffff;fill-opacity:1;fill-rule:nonzero;stroke:none"
               d="m 360.77,964.055 -48.422,0 c -11.797,0 -21.364,-9.563 -21.364,-21.364 l 0,-48.418 c 0,-11.796 9.567,-21.363 21.364,-21.363 l 48.422,0 c 11.796,0 21.359,9.567 21.359,21.363 l 0,48.418 c 0,11.801 -9.563,21.364 -21.359,21.364" /><path
               id="path98"
               style="fill:#ee2b27;fill-opacity:1;fill-rule:nonzero;stroke:none"
               d="m 760.91,1136.56 0.067,-7.31 0.226,-15.69 0.449,-31.37 1.797,-125.495 3.586,-250.988 c 0.016,-6.727 5.391,-12.805 11.754,-13.809 0.797,-0.097 1.594,-0.203 2.434,-0.187 l 7.175,0.008 15.688,0.101 31.371,0.203 125.492,0.809 250.991,0.992 c 5.5,-0.027 10.55,4.375 11.42,9.61 0.08,0.656 0.18,1.316 0.17,2.015 l 0.01,7.125 -0.06,15.688 -0.11,31.375 -0.07,125.492 c -0.22,83.66 0.91,167.321 1.3,250.991 0.45,5.86 -3.82,11.83 -9.94,13.74 -0.77,0.19 -1.56,0.39 -2.41,0.47 -1.29,0.18 -4.86,0.15 -7.18,0.31 l -15.69,0.7 -31.37,1.4 c -41.83,1.82 -83.66,4.21 -125.49,5.34 -83.665,2.47 -167.329,0.95 -250.989,-0.29 -10.086,-0.14 -19,-8.18 -20.375,-17.65 -0.152,-1.18 -0.277,-2.36 -0.246,-3.58 z m -56.031,-430.853 3.586,250.988 1.801,125.495 0.449,31.37 0.223,15.69 0.167,8.37 c 0.106,4.02 0.606,8.03 1.379,12.01 3.27,15.89 12.161,30.39 24.606,40.46 12.449,10.1 28.562,15.62 44.441,15.49 83.66,-1.24 167.324,-2.76 250.989,-0.29 41.83,1.13 83.66,3.53 125.49,5.34 l 31.37,1.41 15.69,0.7 c 2.91,0.1 4.57,0.23 8.5,0.21 4.39,0 8.79,-0.42 13.17,-1.16 17.49,-3.12 33.92,-12.41 45.38,-26.12 11.51,-13.65 18.11,-31.63 18.3,-49.55 0.39,-83.67 1.52,-167.331 1.3,-250.991 l -0.07,-125.492 -0.12,-31.375 -0.05,-15.688 -0.09,-8.558 c -0.08,-4.539 -0.61,-9.067 -1.46,-13.563 -3.55,-17.988 -13.5,-34.492 -27.54,-46.019 -14.03,-11.563 -32.35,-18.016 -50.45,-17.989 l -250.991,0.996 -125.492,0.805 -31.371,0.203 -15.688,0.102 -8.511,0.105 c -4.403,0.094 -8.789,0.614 -13.149,1.442 -17.429,3.48 -33.398,13.14 -44.539,26.761 -11.168,13.606 -17.375,31.34 -17.32,48.848" /><path
               id="path100"
               style="fill:#f47520;fill-opacity:1;fill-rule:nonzero;stroke:none"
               d="m 891.223,1024.87 c 0.371,-0.16 0.863,-0.15 1.324,0.04 -0.442,-0.01 -0.883,-0.02 -1.324,-0.04 z m 2.621,0.08 0.054,-1.89 0.223,-7.7 0.449,-15.376 1.801,-61.527 3.309,-113.492 2.601,0.047 15.379,0.293 61.531,0.543 111.369,0.812 -0.11,15.18 -0.07,61.527 c -0.2,38.34 0.74,76.68 1.18,115.013 l -0.37,0.04 -15.38,1.4 c -20.51,1.82 -41.02,4.21 -61.53,5.34 -40.147,2.42 -80.292,1.02 -120.436,-0.21 z m 208.216,-7.51 c 0.04,0.12 -2.05,0.14 -3.07,0.27 0.51,-0.11 0.99,-0.34 1.52,-0.33 0.53,-0.05 1.07,-0.01 1.55,0.06 z m -264.259,-202.042 3.586,123.059 1.797,61.527 0.449,15.376 0.226,7.7 0.141,4.37 c 0.086,2.69 0.426,5.37 0.965,8.04 4.164,21.63 24.754,37.86 46.258,37.19 41.015,-1.24 82.035,-2.75 123.057,-0.29 20.51,1.14 41.02,3.53 61.53,5.34 l 15.38,1.41 7.69,0.7 c 1.58,0.12 1.9,0.2 4.51,0.23 3.05,0.02 6.12,-0.24 9.19,-0.74 12.26,-2.08 23.86,-8.49 31.91,-18.1 8.13,-9.51 12.85,-22.19 13.01,-34.79 0.39,-41.014 1.52,-82.033 1.3,-123.053 l -0.07,-61.527 -0.12,-15.383 -0.05,-7.691 -0.06,-4.563 c -0.07,-3.203 -0.44,-6.406 -1.05,-9.59 -4.67,-25.867 -29.12,-45.746 -55.2,-45.246 l -123.059,0.895 -61.531,0.543 -15.379,0.293 -7.691,0.148 -4.52,0.102 c -3.078,0.082 -6.152,0.453 -9.207,1.05 -24.812,4.618 -43.672,28.145 -43.062,53" /><path
               id="path102"
               style="fill:#ffffff;fill-opacity:1;fill-rule:nonzero;stroke:none"
               d="m 972.523,875.34 48.417,0 c 11.8,0 21.37,9.562 21.37,21.359 l 0,48.422 c 0,11.797 -9.57,21.363 -21.37,21.363 l -48.417,0 c -11.796,0 -21.363,-9.566 -21.363,-21.363 l 0,-48.422 c 0,-11.797 9.567,-21.359 21.363,-21.359" /><path
               id="path104"
               style="fill:#ee2b27;fill-opacity:1;fill-rule:nonzero;stroke:none"
               d="m 1899.05,702.832 -0.07,7.316 -0.23,15.688 -0.45,31.371 -1.8,125.492 -3.58,250.991 c -0.02,6.72 -5.39,12.8 -11.75,13.81 -0.8,0.09 -1.6,0.2 -2.44,0.18 l -7.17,-0.01 -15.69,-0.1 -31.37,-0.2 -125.5,-0.81 -250.98,-0.99 c -5.51,0.03 -10.56,-4.38 -11.42,-9.61 -0.08,-0.66 -0.18,-1.31 -0.17,-2.02 l -0.02,-7.12 0.06,-15.69 0.11,-31.37 0.07,-125.494 c 0.22,-83.661 -0.9,-167.325 -1.29,-250.985 -0.45,-5.871 3.82,-11.84 9.93,-13.742 0.77,-0.191 1.57,-0.394 2.41,-0.476 1.29,-0.172 4.87,-0.153 7.18,-0.305 l 15.69,-0.703 31.37,-1.403 c 41.84,-1.816 83.67,-4.207 125.5,-5.336 83.66,-2.468 167.32,-0.957 250.98,0.286 10.09,0.136 19,8.187 20.38,17.656 0.15,1.18 0.27,2.359 0.25,3.574 z m 56.03,430.858 -3.59,-250.991 -1.8,-125.492 -0.45,-31.371 -0.22,-15.688 -0.17,-8.371 c -0.11,-4.027 -0.61,-8.035 -1.38,-12.007 -3.27,-15.891 -12.16,-30.391 -24.61,-40.465 -12.44,-10.094 -28.56,-15.621 -44.44,-15.492 -83.66,1.242 -167.32,2.757 -250.98,0.289 -41.83,-1.133 -83.66,-3.524 -125.5,-5.34 l -31.37,-1.403 -15.69,-0.703 c -2.9,-0.105 -4.56,-0.226 -8.5,-0.207 -4.39,-0.004 -8.79,0.418 -13.17,1.153 -17.48,3.121 -33.92,12.406 -45.37,26.128 -11.52,13.641 -18.12,31.622 -18.31,49.551 -0.39,83.66 -1.51,167.324 -1.29,250.985 l 0.07,125.494 0.11,31.37 0.06,15.69 0.08,8.56 c 0.09,4.54 0.62,9.06 1.46,13.56 3.56,17.99 13.5,34.49 27.55,46.02 14.02,11.56 32.35,18.02 50.45,17.99 l 250.98,-1 125.5,-0.8 31.37,-0.21 15.69,-0.1 8.51,-0.1 c 4.4,-0.1 8.79,-0.62 13.15,-1.44 17.43,-3.48 33.39,-13.14 44.53,-26.76 11.17,-13.61 17.38,-31.35 17.33,-48.85" /><path
               id="path106"
               style="fill:#f47520;fill-opacity:1;fill-rule:nonzero;stroke:none"
               d="m 1768.73,814.523 c -0.37,0.165 -0.86,0.153 -1.32,-0.039 0.44,0.012 0.88,0.028 1.32,0.039 z m -2.62,-0.078 -0.05,1.895 -0.23,7.687 -0.45,15.383 -1.8,61.528 -3.3,113.492 -2.61,-0.05 -15.38,-0.29 -61.52,-0.54 -111.38,-0.82 0.11,-15.175 0.07,-61.528 c 0.21,-38.339 -0.73,-76.679 -1.18,-115.019 l 0.38,-0.031 15.38,-1.407 c 20.51,-1.812 41.02,-4.207 61.53,-5.336 40.14,-2.418 80.29,-1.015 120.43,0.211 z m -208.22,7.516 c -0.04,-0.125 2.05,-0.145 3.07,-0.277 -0.5,0.109 -0.98,0.336 -1.51,0.336 -0.54,0.043 -1.07,0 -1.56,-0.059 z m 264.27,202.029 -3.59,-123.052 -1.8,-61.528 -0.45,-15.383 -0.22,-7.687 -0.15,-4.375 c -0.08,-2.692 -0.42,-5.375 -0.96,-8.035 -4.16,-21.629 -24.75,-37.864 -46.26,-37.2 -41.02,1.247 -82.04,2.758 -123.05,0.29 -20.51,-1.129 -41.02,-3.524 -61.53,-5.336 l -15.38,-1.407 -7.7,-0.699 c -1.57,-0.121 -1.9,-0.203 -4.5,-0.234 -3.06,-0.024 -6.13,0.242 -9.2,0.738 -12.25,2.086 -23.86,8.488 -31.91,18.098 -8.12,9.515 -12.85,22.199 -13.01,34.793 -0.39,41.015 -1.51,82.035 -1.29,123.054 l 0.07,61.528 0.11,15.385 0.05,7.69 0.06,4.56 c 0.07,3.2 0.44,6.41 1.05,9.59 4.67,25.87 29.13,45.75 55.21,45.25 l 123.06,-0.9 61.52,-0.54 15.38,-0.29 7.7,-0.15 4.51,-0.1 c 3.08,-0.09 6.16,-0.46 9.21,-1.05 24.81,-4.62 43.67,-28.15 43.07,-53.01" /><path
               id="path108"
               style="fill:#ffffff;fill-opacity:1;fill-rule:nonzero;stroke:none"
               d="m 1687.43,964.055 -48.42,0 c -11.8,0 -21.36,-9.563 -21.36,-21.364 l 0,-48.418 c 0,-11.796 9.56,-21.363 21.36,-21.363 l 48.42,0 c 11.8,0 21.36,9.567 21.36,21.363 l 0,48.418 c 0,11.801 -9.56,21.364 -21.36,21.364" /><path
               id="path110"
               style="fill:#ee2b27;fill-opacity:1;fill-rule:nonzero;stroke:none"
               d="m 4475.59,1449 c -141.64,0 -214.72,61.77 -279.19,116.26 -59.62,50.39 -111.11,93.92 -218.14,93.92 -107,0 -158.48,-43.53 -218.09,-93.92 C 3695.7,1510.77 3622.63,1449 3481.01,1449 c -141.63,0 -214.69,61.77 -279.16,116.26 -59.61,50.39 -111.1,93.92 -218.11,93.92 l 0,94.58 c 141.63,0 214.7,-61.77 279.17,-116.27 59.61,-50.39 111.09,-93.91 218.1,-93.91 107,0 158.48,43.52 218.09,93.91 64.47,54.5 137.54,116.27 279.16,116.27 141.64,0 214.72,-61.77 279.19,-116.27 59.62,-50.39 111.11,-93.91 218.14,-93.91 107.02,0 158.51,43.52 218.13,93.91 64.47,54.5 137.55,116.27 279.18,116.27 l 0,-94.58 c -107.02,0 -158.51,-43.53 -218.13,-93.92 C 4690.3,1510.77 4617.22,1449 4475.59,1449" /><path
               id="path112"
               style="fill:#f47520;fill-opacity:1;fill-rule:nonzero;stroke:none"
               d="m 4475.59,1541.83 c -141.64,0 -214.72,61.77 -279.19,116.26 -59.62,50.39 -111.11,93.91 -218.14,93.91 -107,0 -158.48,-43.52 -218.09,-93.91 -64.47,-54.49 -137.54,-116.26 -279.16,-116.26 -141.63,0 -214.69,61.77 -279.16,116.26 -59.61,50.39 -111.1,93.91 -218.11,93.91 l 0,94.58 c 141.63,0 214.7,-61.77 279.17,-116.26 59.61,-50.39 111.09,-93.91 218.1,-93.91 107,0 158.48,43.52 218.09,93.91 64.47,54.49 137.54,116.26 279.16,116.26 141.64,0 214.72,-61.77 279.19,-116.26 59.62,-50.39 111.11,-93.91 218.14,-93.91 107.02,0 158.51,43.52 218.13,93.91 64.47,54.49 137.55,116.26 279.18,116.26 l 0,-94.58 c -107.02,0 -158.51,-43.52 -218.13,-93.91 -64.47,-54.49 -137.55,-116.26 -279.18,-116.26" /><path
               id="path114"
               style="fill:#f47520;fill-opacity:1;fill-rule:nonzero;stroke:none"
               d="m 3480.98,2356.8 497.38,497.38 -994.62,-0.14 497.24,-497.24 z" /><path
               id="path116"
               style="fill:#0d1d22;fill-opacity:1;fill-rule:nonzero;stroke:none"
               d="m 3216.84,2757.52 528.35,0.05 -264.21,-264.2 -264.14,264.15 z" /><path
               id="path118"
               style="fill:#dfbe19;fill-opacity:1;fill-rule:nonzero;stroke:none"
               d="m 3368.48,2694.71 225.04,0.03 -112.54,-112.53 -112.5,112.5 z" /><path
               id="path120"
               style="fill:#f47520;fill-opacity:1;fill-rule:nonzero;stroke:none"
               d="m 3482.86,2193.34 -498.95,-0.11 0,499.06 0.1,0.11 498.85,-499.06" /><path
               id="path122"
               style="fill:#0d1d22;fill-opacity:1;fill-rule:nonzero;stroke:none"
               d="m 3248.99,2290.21 -265.08,0 0,264.97 0.1,0.11 264.98,-265.08" /><path
               id="path124"
               style="fill:#dfbe19;fill-opacity:1;fill-rule:nonzero;stroke:none"
               d="m 3096.85,2353.14 -112.94,0 0,113.05 112.94,-113.05 z" /><path
               id="path126"
               style="fill:#f47520;fill-opacity:1;fill-rule:nonzero;stroke:none"
               d="m 3479.25,2193.11 0,0.19 499.19,499.19 498.99,-499.19 -998.18,-0.19" /><path
               id="path128"
               style="fill:#0d1d22;fill-opacity:1;fill-rule:nonzero;stroke:none"
               d="m 4243.53,2290.19 -530.42,-0.11 265.32,265.32 265.1,-265.21 z" /><path
               id="path130"
               style="fill:#dfbe19;fill-opacity:1;fill-rule:nonzero;stroke:none"
               d="m 4091.38,2353.21 -226.02,-0.05 113.06,113.06 112.96,-113.01 z" /><path
               id="path132"
               style="fill:#ffffff;fill-opacity:1;fill-rule:nonzero;stroke:none"
               d="m 4972.9,3031.97 0,-63 -1989.13,0 0,63 1989.13,0" /><path
               id="path134"
               style="fill:#ffffff;fill-opacity:1;fill-rule:nonzero;stroke:none"
               d="m 4972.9,1340.06 0,-63.01 -1989.13,0 0,63.01 1989.13,0" /><path
               id="path136"
               style="fill:#ffffff;fill-opacity:1;fill-rule:nonzero;stroke:none"
               d="m 4972.9,2096.6 0,-63.01 -1989.13,0 0,63.01 1989.13,0" /><path
               id="path138"
               style="fill:#ee2b27;fill-opacity:1;fill-rule:nonzero;stroke:none"
               d="m 3556.12,3192.83 -0.06,7.32 -0.23,15.68 -0.45,31.38 -1.8,125.49 -3.58,250.99 c -0.02,6.73 -5.39,12.8 -11.76,13.81 -0.79,0.09 -1.59,0.2 -2.43,0.18 l -7.17,-0.01 -15.69,-0.1 -31.37,-0.2 -125.5,-0.81 -250.98,-0.99 c -5.51,0.03 -10.56,-4.38 -11.43,-9.61 -0.07,-0.66 -0.17,-1.31 -0.16,-2.02 l -0.02,-7.12 0.06,-15.69 0.11,-31.37 0.07,-125.49 c 0.22,-83.67 -0.9,-167.33 -1.29,-250.99 -0.45,-5.87 3.82,-11.84 9.93,-13.74 0.77,-0.19 1.56,-0.4 2.41,-0.48 1.29,-0.17 4.87,-0.15 7.19,-0.3 l 15.68,-0.7 31.37,-1.41 c 41.84,-1.81 83.67,-4.2 125.5,-5.33 83.66,-2.47 167.32,-0.96 250.98,0.28 10.09,0.14 19,8.19 20.38,17.66 0.15,1.18 0.27,2.36 0.24,3.57 z m 56.03,430.86 -3.58,-250.99 -1.8,-125.49 -0.45,-31.38 -0.22,-15.68 -0.17,-8.37 c -0.11,-4.03 -0.61,-8.04 -1.38,-12.01 -3.27,-15.89 -12.16,-30.39 -24.61,-40.47 -12.45,-10.09 -28.56,-15.62 -44.44,-15.49 -83.66,1.24 -167.32,2.76 -250.98,0.29 -41.83,-1.13 -83.66,-3.52 -125.5,-5.34 l -31.37,-1.4 -15.68,-0.7 c -2.92,-0.11 -4.57,-0.23 -8.51,-0.21 -4.39,0 -8.79,0.42 -13.17,1.15 -17.48,3.12 -33.92,12.41 -45.37,26.13 -11.52,13.64 -18.12,31.62 -18.31,49.55 -0.39,83.66 -1.51,167.32 -1.29,250.99 l 0.07,125.49 0.11,31.37 0.05,15.69 0.09,8.56 c 0.09,4.54 0.61,9.06 1.46,13.56 3.56,17.99 13.5,34.5 27.54,46.02 14.03,11.56 32.36,18.02 50.46,17.99 l 250.98,-1 125.5,-0.8 31.37,-0.21 15.69,-0.1 8.51,-0.1 c 4.4,-0.1 8.79,-0.62 13.14,-1.44 17.43,-3.48 33.4,-13.14 44.54,-26.76 11.17,-13.61 17.38,-31.35 17.32,-48.85" /><path
               id="path140"
               style="fill:#f47520;fill-opacity:1;fill-rule:nonzero;stroke:none"
               d="m 3425.81,3304.52 c -0.37,0.17 -0.86,0.15 -1.32,-0.04 0.44,0.02 0.88,0.03 1.32,0.04 z m -2.62,-0.08 -0.05,1.9 -0.23,7.69 -0.45,15.38 -1.8,61.53 -3.3,113.49 -2.61,-0.05 -15.38,-0.29 -61.53,-0.54 -111.37,-0.82 0.11,-15.18 0.07,-61.52 c 0.21,-38.34 -0.74,-76.68 -1.18,-115.02 l 0.38,-0.03 15.38,-1.41 c 20.51,-1.81 41.02,-4.21 61.53,-5.34 40.14,-2.41 80.29,-1.01 120.43,0.21 z m -208.22,7.52 c -0.04,-0.12 2.05,-0.14 3.07,-0.28 -0.51,0.11 -0.98,0.34 -1.51,0.34 -0.54,0.04 -1.07,0 -1.56,-0.06 z m 264.27,202.04 -3.59,-123.06 -1.8,-61.53 -0.45,-15.38 -0.22,-7.69 -0.15,-4.37 c -0.08,-2.7 -0.42,-5.38 -0.96,-8.04 -4.16,-21.63 -24.75,-37.86 -46.26,-37.2 -41.02,1.24 -82.03,2.76 -123.05,0.29 -20.51,-1.13 -41.02,-3.52 -61.53,-5.34 l -15.38,-1.4 -7.7,-0.7 c -1.57,-0.12 -1.9,-0.21 -4.5,-0.24 -3.06,-0.02 -6.13,0.24 -9.2,0.74 -12.25,2.09 -23.86,8.49 -31.91,18.1 -8.12,9.51 -12.85,22.2 -13.01,34.79 -0.39,41.02 -1.51,82.04 -1.29,123.06 l 0.07,61.52 0.11,15.39 0.05,7.69 0.06,4.56 c 0.07,3.2 0.44,6.41 1.05,9.59 4.67,25.87 29.13,45.75 55.21,45.25 l 123.05,-0.9 61.53,-0.54 15.38,-0.29 7.7,-0.15 4.51,-0.1 c 3.08,-0.09 6.16,-0.46 9.21,-1.06 24.81,-4.61 43.67,-28.14 43.07,-52.99" /><path
               id="path142"
               style="fill:#ffffff;fill-opacity:1;fill-rule:nonzero;stroke:none"
               d="m 3344.51,3454.05 -48.42,0 c -11.8,0 -21.36,-9.56 -21.36,-21.36 l 0,-48.42 c 0,-11.8 9.56,-21.36 21.36,-21.36 l 48.42,0 c 11.8,0 21.36,9.56 21.36,21.36 l 0,48.42 c 0,11.8 -9.56,21.36 -21.36,21.36" /><path
               id="path144"
               style="fill:#ee2b27;fill-opacity:1;fill-rule:nonzero;stroke:none"
               d="m 3744.65,3626.56 0.07,-7.31 0.22,-15.69 0.45,-31.37 1.8,-125.5 3.59,-250.98 c 0.01,-6.73 5.39,-12.81 11.75,-13.81 0.8,-0.1 1.6,-0.2 2.43,-0.19 l 7.18,0.01 15.69,0.1 31.37,0.2 125.49,0.81 250.99,1 c 5.51,-0.04 10.56,4.37 11.42,9.6 0.08,0.66 0.18,1.32 0.17,2.02 l 0.01,7.13 -0.05,15.68 -0.12,31.38 -0.07,125.49 c -0.22,83.66 0.91,167.32 1.3,250.99 0.45,5.86 -3.82,11.83 -9.93,13.74 -0.78,0.19 -1.57,0.39 -2.42,0.47 -1.29,0.18 -4.86,0.15 -7.18,0.31 l -15.68,0.7 -31.38,1.4 c -41.83,1.82 -83.66,4.21 -125.49,5.34 -83.66,2.47 -167.32,0.96 -250.99,-0.29 -10.08,-0.13 -19,-8.18 -20.37,-17.65 -0.15,-1.18 -0.28,-2.36 -0.25,-3.58 z m -56.03,-430.85 3.59,250.98 1.8,125.5 0.45,31.37 0.22,15.69 0.17,8.37 c 0.1,4.02 0.6,8.03 1.38,12.01 3.26,15.89 12.16,30.39 24.6,40.46 12.45,10.09 28.56,15.62 44.44,15.49 83.67,-1.24 167.33,-2.75 250.99,-0.29 41.83,1.13 83.66,3.53 125.49,5.34 l 31.38,1.41 15.68,0.7 c 2.91,0.1 4.57,0.23 8.51,0.2 4.39,0.01 8.78,-0.41 13.16,-1.15 17.49,-3.12 33.93,-12.4 45.38,-26.12 11.52,-13.65 18.12,-31.63 18.3,-49.55 0.39,-83.67 1.52,-167.33 1.3,-250.99 l -0.07,-125.49 -0.11,-31.38 -0.06,-15.68 -0.08,-8.57 c -0.09,-4.53 -0.62,-9.06 -1.46,-13.56 -3.56,-17.99 -13.5,-34.49 -27.55,-46.02 -14.03,-11.56 -32.35,-18.01 -50.45,-17.98 l -250.99,0.99 -125.49,0.81 -31.37,0.2 -15.69,0.1 -8.51,0.11 c -4.4,0.09 -8.79,0.61 -13.15,1.44 -17.43,3.48 -33.4,13.14 -44.54,26.76 -11.17,13.61 -17.37,31.34 -17.32,48.85" /><path
               id="path146"
               style="fill:#f47520;fill-opacity:1;fill-rule:nonzero;stroke:none"
               d="m 3874.96,3514.87 c 0.38,-0.16 0.87,-0.15 1.33,0.04 -0.44,-0.01 -0.88,-0.03 -1.33,-0.04 z m 2.63,0.08 0.05,-1.89 0.22,-7.7 0.45,-15.38 1.8,-61.52 3.31,-113.5 2.6,0.05 15.38,0.29 61.53,0.55 111.37,0.81 -0.11,15.18 -0.06,61.53 c -0.21,38.34 0.73,76.68 1.17,115.02 l -0.37,0.03 -15.38,1.4 c -20.51,1.82 -41.02,4.21 -61.53,5.34 -40.14,2.42 -80.29,1.01 -120.43,-0.21 z m 208.21,-7.51 c 0.05,0.12 -2.05,0.14 -3.07,0.27 0.51,-0.11 0.99,-0.34 1.52,-0.33 0.54,-0.05 1.07,-0.01 1.55,0.06 z m -264.26,-202.04 3.59,123.06 1.8,61.52 0.45,15.38 0.22,7.7 0.14,4.37 c 0.09,2.69 0.43,5.37 0.97,8.04 4.16,21.63 24.75,37.86 46.25,37.19 41.02,-1.24 82.04,-2.75 123.06,-0.29 20.51,1.14 41.02,3.53 61.53,5.34 l 15.38,1.41 7.69,0.7 c 1.58,0.12 1.9,0.2 4.51,0.23 3.05,0.02 6.13,-0.24 9.19,-0.74 12.26,-2.08 23.86,-8.49 31.91,-18.1 8.13,-9.51 12.86,-22.19 13.01,-34.79 0.39,-41.02 1.52,-82.03 1.3,-123.05 l -0.07,-61.53 -0.11,-15.38 -0.06,-7.69 -0.06,-4.57 c -0.07,-3.2 -0.43,-6.4 -1.04,-9.59 -4.68,-25.86 -29.13,-45.74 -55.21,-45.24 l -123.06,0.89 -61.53,0.55 -15.38,0.29 -7.69,0.15 -4.52,0.1 c -3.07,0.08 -6.15,0.45 -9.2,1.05 -24.82,4.62 -43.67,28.14 -43.07,53" /><path
               id="path148"
               style="fill:#ffffff;fill-opacity:1;fill-rule:nonzero;stroke:none"
               d="m 3956.27,3365.34 48.42,0 c 11.79,0 21.36,9.56 21.36,21.36 l 0,48.42 c 0,11.8 -9.57,21.36 -21.36,21.36 l -48.42,0 c -11.8,0 -21.37,-9.56 -21.37,-21.36 l 0,-48.42 c 0,-11.8 9.57,-21.36 21.37,-21.36" /><path
               id="path150"
               style="fill:#dfbe19;fill-opacity:1;fill-rule:nonzero;stroke:none"
               d="m 4475.59,1634.66 c -141.64,0 -214.72,61.77 -279.19,116.26 -59.62,50.39 -111.11,93.91 -218.14,93.91 -107,0 -158.48,-43.52 -218.09,-93.91 -64.47,-54.49 -137.54,-116.26 -279.16,-116.26 -141.63,0 -214.69,61.77 -279.16,116.26 -59.61,50.39 -111.1,93.91 -218.11,93.91 l 0,94.58 c 141.63,0 214.7,-61.77 279.17,-116.26 59.61,-50.39 111.09,-93.91 218.1,-93.91 107,0 158.48,43.52 218.09,93.91 64.47,54.49 137.54,116.26 279.16,116.26 141.64,0 214.72,-61.77 279.19,-116.26 59.62,-50.39 111.11,-93.91 218.14,-93.91 107.02,0 158.51,43.52 218.13,93.91 64.47,54.49 137.55,116.26 279.18,116.26 l 0,-94.58 c -107.02,0 -158.51,-43.52 -218.13,-93.91 -64.47,-54.49 -137.55,-116.26 -279.18,-116.26" /><path
               id="path152"
               style="fill:#ee2b27;fill-opacity:1;fill-rule:nonzero;stroke:none"
               d="m 3528.4,1898.25 c 0,-31.44 -25.48,-56.92 -56.92,-56.92 -31.44,0 -56.92,25.48 -56.92,56.92 0,31.44 25.48,56.92 56.92,56.92 31.44,0 56.92,-25.48 56.92,-56.92" /><path
               id="path154"
               style="fill:#ee2b27;fill-opacity:1;fill-rule:nonzero;stroke:none"
               d="m 4035.24,1483.55 c 0,-31.43 -25.48,-56.92 -56.92,-56.92 -31.44,0 -56.92,25.49 -56.92,56.92 0,31.44 25.48,56.93 56.92,56.93 31.44,0 56.92,-25.49 56.92,-56.93" /><path
               id="path156"
               style="fill:#ee2b27;fill-opacity:1;fill-rule:nonzero;stroke:none"
               d="m 2983.74,1540.48 0,-113.85 c 31.44,0 56.93,25.49 56.93,56.92 0,31.44 -25.49,56.93 -56.93,56.93" /><path
               id="path158"
               style="fill:#ee2b27;fill-opacity:1;fill-rule:nonzero;stroke:none"
               d="m 2486.42,1449 c -141.64,0 -214.71,61.77 -279.18,116.26 -59.62,50.39 -111.12,93.92 -218.14,93.92 -107,0 -158.49,-43.53 -218.1,-93.92 -64.46,-54.49 -137.53,-116.26 -279.15,-116.26 -141.63,0 -214.7,61.77 -279.17,116.26 -59.61,50.39 -111.09,93.92 -218.098,93.92 l 0,94.58 c 141.628,0 214.698,-61.77 279.168,-116.27 59.61,-50.39 111.09,-93.91 218.1,-93.91 107,0 158.48,43.52 218.09,93.91 64.47,54.5 137.53,116.27 279.16,116.27 141.64,0 214.72,-61.77 279.19,-116.27 59.62,-50.39 111.11,-93.91 218.13,-93.91 107.02,0 158.52,43.52 218.14,93.91 64.47,54.5 137.54,116.27 279.18,116.27 l 0,-94.58 c -107.02,0 -158.51,-43.53 -218.13,-93.92 C 2701.13,1510.77 2628.06,1449 2486.42,1449" /><path
               id="path160"
               style="fill:#f47520;fill-opacity:1;fill-rule:nonzero;stroke:none"
               d="m 2486.42,1541.83 c -141.64,0 -214.71,61.77 -279.18,116.26 -59.62,50.39 -111.12,93.91 -218.14,93.91 -107,0 -158.49,-43.52 -218.1,-93.91 -64.46,-54.49 -137.53,-116.26 -279.15,-116.26 -141.63,0 -214.7,61.77 -279.17,116.26 -59.61,50.39 -111.09,93.91 -218.098,93.91 l 0,94.58 c 141.628,0 214.698,-61.77 279.168,-116.26 59.61,-50.39 111.09,-93.91 218.1,-93.91 107,0 158.48,43.52 218.09,93.91 64.47,54.49 137.53,116.26 279.16,116.26 141.64,0 214.72,-61.77 279.19,-116.26 59.62,-50.39 111.11,-93.91 218.13,-93.91 107.02,0 158.52,43.52 218.14,93.91 64.47,54.49 137.54,116.26 279.18,116.26 l 0,-94.58 c -107.02,0 -158.51,-43.52 -218.13,-93.91 -64.48,-54.49 -137.55,-116.26 -279.19,-116.26" /><path
               id="path162"
               style="fill:#f47520;fill-opacity:1;fill-rule:nonzero;stroke:none"
               d="m 1491.82,2356.8 497.38,497.38 -994.618,-0.14 497.238,-497.24 z" /><path
               id="path164"
               style="fill:#0d1d22;fill-opacity:1;fill-rule:nonzero;stroke:none"
               d="m 1227.68,2757.52 528.35,0.05 -264.21,-264.2 -264.14,264.15 z" /><path
               id="path166"
               style="fill:#dfbe19;fill-opacity:1;fill-rule:nonzero;stroke:none"
               d="m 1379.31,2694.71 225.05,0.03 -112.54,-112.53 -112.51,112.5 z" /><path
               id="path168"
               style="fill:#f47520;fill-opacity:1;fill-rule:nonzero;stroke:none"
               d="m 2983.74,2854.24 0,-0.2 -497.32,-497.32 -497.13,497.32 994.45,0.2" /><path
               id="path170"
               style="fill:#0d1d22;fill-opacity:1;fill-rule:nonzero;stroke:none"
               d="m 2222.32,2757.52 528.43,0.11 -264.32,-264.34 -264.11,264.23 z" /><path
               id="path172"
               style="fill:#dfbe19;fill-opacity:1;fill-rule:nonzero;stroke:none"
               d="m 2373.9,2694.73 225.18,0.06 -112.64,-112.64 -112.54,112.58 z" /><path
               id="path174"
               style="fill:#f47520;fill-opacity:1;fill-rule:nonzero;stroke:none"
               d="m 1493.7,2193.34 -498.954,-0.11 0,499.06 0.106,0.11 498.848,-499.06" /><path
               id="path176"
               style="fill:#0d1d22;fill-opacity:1;fill-rule:nonzero;stroke:none"
               d="m 1259.83,2290.21 -265.084,0 0,264.97 0.106,0.11 264.978,-265.08" /><path
               id="path178"
               style="fill:#dfbe19;fill-opacity:1;fill-rule:nonzero;stroke:none"
               d="m 1107.69,2353.14 -112.944,0 0,113.05 112.944,-113.05 z" /><path
               id="path180"
               style="fill:#f47520;fill-opacity:1;fill-rule:nonzero;stroke:none"
               d="m 1490.09,2193.11 0,0.19 499.19,499.19 498.99,-499.19 -998.18,-0.19" /><path
               id="path182"
               style="fill:#0d1d22;fill-opacity:1;fill-rule:nonzero;stroke:none"
               d="m 2254.37,2290.19 -530.42,-0.11 265.32,265.32 265.1,-265.21 z" /><path
               id="path184"
               style="fill:#dfbe19;fill-opacity:1;fill-rule:nonzero;stroke:none"
               d="m 2102.22,2353.21 -226.02,-0.05 113.06,113.06 112.96,-113.01 z" /><path
               id="path186"
               style="fill:#f47520;fill-opacity:1;fill-rule:nonzero;stroke:none"
               d="m 2983.74,2692.4 0,-499.17 -499.06,-0.11 0,0.22 499.06,499.06" /><path
               id="path188"
               style="fill:#0d1d22;fill-opacity:1;fill-rule:nonzero;stroke:none"
               d="m 2983.74,2555.26 0,-265.14 -265.24,0 265.24,265.14 z" /><path
               id="path190"
               style="fill:#dfbe19;fill-opacity:1;fill-rule:nonzero;stroke:none"
               d="m 2983.74,2466.14 0,-112.97 -112.97,0 112.97,112.97 z" /><path
               id="path192"
               style="fill:#ffffff;fill-opacity:1;fill-rule:nonzero;stroke:none"
               d="m 2983.74,3031.97 0,-63 -1989.127,0 0,63 1989.127,0" /><path
               id="path194"
               style="fill:#ffffff;fill-opacity:1;fill-rule:nonzero;stroke:none"
               d="m 2983.74,1340.06 0,-63.01 -1989.127,0 0,63.01 1989.127,0" /><path
               id="path196"
               style="fill:#ffffff;fill-opacity:1;fill-rule:nonzero;stroke:none"
               d="m 2983.74,2096.6 0,-63.01 -1989.127,0 0,63.01 1989.127,0" /><path
               id="path198"
               style="fill:#ee2b27;fill-opacity:1;fill-rule:nonzero;stroke:none"
               d="m 1566.96,3192.83 -0.07,7.32 -0.22,15.68 -0.45,31.38 -1.8,125.49 -3.58,250.99 c -0.02,6.73 -5.4,12.8 -11.76,13.81 -0.79,0.09 -1.59,0.2 -2.43,0.18 l -7.18,-0.01 -15.68,-0.1 -31.37,-0.2 -125.5,-0.81 -250.99,-0.99 c -5.5,0.03 -10.55,-4.38 -11.42,-9.61 -0.08,-0.66 -0.17,-1.31 -0.16,-2.02 l -0.02,-7.12 0.06,-15.69 0.11,-31.37 0.07,-125.49 c 0.22,-83.67 -0.91,-167.33 -1.29,-250.99 -0.45,-5.87 3.81,-11.84 9.93,-13.74 0.77,-0.19 1.56,-0.4 2.41,-0.48 1.29,-0.17 4.86,-0.15 7.18,-0.3 l 15.69,-0.7 31.37,-1.41 c 41.83,-1.81 83.66,-4.2 125.49,-5.33 83.67,-2.47 167.33,-0.96 250.99,0.28 10.09,0.14 19,8.19 20.38,17.66 0.15,1.18 0.27,2.36 0.24,3.57 z m 56.03,430.86 -3.58,-250.99 -1.8,-125.49 -0.45,-31.38 -0.23,-15.68 -0.16,-8.37 c -0.11,-4.03 -0.61,-8.04 -1.38,-12.01 -3.27,-15.89 -12.16,-30.39 -24.61,-40.47 -12.45,-10.09 -28.56,-15.62 -44.44,-15.49 -83.66,1.24 -167.32,2.76 -250.99,0.29 -41.83,-1.13 -83.66,-3.52 -125.49,-5.34 l -31.37,-1.4 -15.69,-0.7 c -2.91,-0.11 -4.57,-0.23 -8.5,-0.21 -4.39,0 -8.79,0.42 -13.17,1.15 -17.48,3.12 -33.92,12.41 -45.37,26.13 -11.52,13.64 -18.12,31.62 -18.31,49.55 -0.39,83.66 -1.52,167.32 -1.29,250.99 l 0.06,125.49 0.12,31.37 0.05,15.69 0.09,8.56 c 0.09,4.54 0.61,9.06 1.46,13.56 3.55,17.99 13.5,34.5 27.54,46.02 14.03,11.56 32.36,18.02 50.45,17.99 l 250.99,-1 125.5,-0.8 31.37,-0.21 15.68,-0.1 8.51,-0.1 c 4.41,-0.1 8.79,-0.62 13.15,-1.44 17.43,-3.48 33.4,-13.14 44.54,-26.76 11.17,-13.61 17.38,-31.35 17.32,-48.85" /><path
               id="path200"
               style="fill:#f47520;fill-opacity:1;fill-rule:nonzero;stroke:none"
               d="m 1436.65,3304.52 c -0.37,0.17 -0.86,0.15 -1.33,-0.04 0.45,0.02 0.89,0.03 1.33,0.04 z m -2.62,-0.08 -0.06,1.9 -0.22,7.69 -0.45,15.38 -1.8,61.53 -3.31,113.49 -2.6,-0.05 -15.38,-0.29 -61.53,-0.54 -111.37,-0.82 0.11,-15.18 0.07,-61.52 c 0.21,-38.34 -0.74,-76.68 -1.18,-115.02 l 0.37,-0.03 15.39,-1.41 c 20.51,-1.81 41.02,-4.21 61.52,-5.34 40.15,-2.41 80.29,-1.01 120.44,0.21 z m -208.22,7.52 c -0.04,-0.12 2.05,-0.14 3.07,-0.28 -0.51,0.11 -0.99,0.34 -1.51,0.34 -0.54,0.04 -1.07,0 -1.56,-0.06 z m 264.26,202.04 -3.58,-123.06 -1.8,-61.53 -0.45,-15.38 -0.23,-7.69 -0.14,-4.37 c -0.08,-2.7 -0.43,-5.38 -0.96,-8.04 -4.17,-21.63 -24.76,-37.86 -46.26,-37.2 -41.02,1.24 -82.04,2.76 -123.06,0.29 -20.5,-1.13 -41.01,-3.52 -61.52,-5.34 l -15.39,-1.4 -7.69,-0.7 c -1.57,-0.12 -1.9,-0.21 -4.5,-0.24 -3.06,-0.02 -6.13,0.24 -9.2,0.74 -12.25,2.09 -23.86,8.49 -31.91,18.1 -8.12,9.51 -12.85,22.2 -13.01,34.79 -0.39,41.02 -1.52,82.04 -1.29,123.06 l 0.06,61.52 0.12,15.39 0.05,7.69 0.06,4.56 c 0.07,3.2 0.44,6.41 1.05,9.59 4.67,25.87 29.12,45.75 55.21,45.25 l 123.05,-0.9 61.53,-0.54 15.38,-0.29 7.69,-0.15 4.52,-0.1 c 3.08,-0.09 6.15,-0.46 9.21,-1.06 24.81,-4.61 43.67,-28.14 43.06,-52.99" /><path
               id="path202"
               style="fill:#ffffff;fill-opacity:1;fill-rule:nonzero;stroke:none"
               d="m 1355.35,3454.05 -48.42,0 c -11.8,0 -21.36,-9.56 -21.36,-21.36 l 0,-48.42 c 0,-11.8 9.56,-21.36 21.36,-21.36 l 48.42,0 c 11.8,0 21.36,9.56 21.36,21.36 l 0,48.42 c 0,11.8 -9.56,21.36 -21.36,21.36" /><path
               id="path204"
               style="fill:#ee2b27;fill-opacity:1;fill-rule:nonzero;stroke:none"
               d="m 1755.49,3626.56 0.07,-7.31 0.22,-15.69 0.45,-31.37 1.8,-125.5 3.59,-250.98 c 0.01,-6.73 5.39,-12.81 11.75,-13.81 0.8,-0.1 1.59,-0.2 2.43,-0.19 l 7.18,0.01 15.68,0.1 31.38,0.2 125.49,0.81 250.99,1 c 5.51,-0.04 10.55,4.37 11.42,9.6 0.08,0.66 0.18,1.32 0.17,2.02 l 0.01,7.13 -0.06,15.68 -0.11,31.38 -0.07,125.49 c -0.22,83.66 0.91,167.32 1.3,250.99 0.45,5.86 -3.82,11.83 -9.93,13.74 -0.78,0.19 -1.57,0.39 -2.42,0.47 -1.29,0.18 -4.86,0.15 -7.18,0.31 l -15.69,0.7 -31.37,1.4 c -41.83,1.82 -83.66,4.21 -125.49,5.34 -83.66,2.47 -167.33,0.96 -250.99,-0.29 -10.09,-0.13 -19,-8.18 -20.37,-17.65 -0.15,-1.18 -0.28,-2.36 -0.25,-3.58 z m -56.03,-430.85 3.59,250.98 1.79,125.5 0.45,31.37 0.23,15.69 0.17,8.37 c 0.1,4.02 0.6,8.03 1.37,12.01 3.27,15.89 12.16,30.39 24.61,40.46 12.45,10.09 28.56,15.62 44.44,15.49 83.66,-1.24 167.33,-2.75 250.99,-0.29 41.83,1.13 83.66,3.53 125.49,5.34 l 31.37,1.41 15.69,0.7 c 2.91,0.1 4.57,0.23 8.5,0.2 4.4,0.01 8.79,-0.41 13.17,-1.15 17.49,-3.12 33.93,-12.4 45.38,-26.12 11.52,-13.65 18.12,-31.63 18.3,-49.55 0.39,-83.67 1.52,-167.33 1.3,-250.99 l -0.07,-125.49 -0.11,-31.38 -0.06,-15.68 -0.08,-8.57 c -0.09,-4.53 -0.62,-9.06 -1.47,-13.56 -3.55,-17.99 -13.5,-34.49 -27.54,-46.02 -14.03,-11.56 -32.35,-18.01 -50.45,-17.98 l -250.99,0.99 -125.49,0.81 -31.38,0.2 -15.68,0.1 -8.51,0.11 c -4.4,0.09 -8.79,0.61 -13.15,1.44 -17.43,3.48 -33.4,13.14 -44.54,26.76 -11.17,13.61 -17.38,31.34 -17.32,48.85" /><path
               id="path206"
               style="fill:#f47520;fill-opacity:1;fill-rule:nonzero;stroke:none"
               d="m 1885.8,3514.87 c 0.38,-0.16 0.87,-0.15 1.33,0.04 -0.44,-0.01 -0.89,-0.03 -1.33,-0.04 z m 2.62,0.08 0.06,-1.89 0.22,-7.7 0.45,-15.38 1.8,-61.52 3.31,-113.5 2.6,0.05 15.38,0.29 61.53,0.55 111.37,0.81 -0.11,15.18 -0.07,61.53 c -0.2,38.34 0.74,76.68 1.18,115.02 l -0.37,0.03 -15.38,1.4 c -20.51,1.82 -41.02,4.21 -61.53,5.34 -40.15,2.42 -80.29,1.01 -120.44,-0.21 z m 208.22,-7.51 c 0.04,0.12 -2.05,0.14 -3.07,0.27 0.51,-0.11 0.99,-0.34 1.52,-0.33 0.54,-0.05 1.07,-0.01 1.55,0.06 z m -264.26,-202.04 3.59,123.06 1.79,61.52 0.45,15.38 0.23,7.7 0.14,4.37 c 0.09,2.69 0.43,5.37 0.96,8.04 4.17,21.63 24.76,37.86 46.26,37.19 41.02,-1.24 82.04,-2.75 123.06,-0.29 20.51,1.14 41.02,3.53 61.53,5.34 l 15.38,1.41 7.69,0.7 c 1.58,0.12 1.9,0.2 4.51,0.23 3.05,0.02 6.13,-0.24 9.19,-0.74 12.26,-2.08 23.86,-8.49 31.91,-18.1 8.13,-9.51 12.86,-22.19 13.01,-34.79 0.39,-41.02 1.52,-82.03 1.3,-123.05 l -0.07,-61.53 -0.11,-15.38 -0.06,-7.69 -0.06,-4.57 c -0.07,-3.2 -0.44,-6.4 -1.05,-9.59 -4.67,-25.86 -29.12,-45.74 -55.2,-45.24 l -123.06,0.89 -61.53,0.55 -15.38,0.29 -7.69,0.15 -4.52,0.1 c -3.07,0.08 -6.15,0.45 -9.21,1.05 -24.81,4.62 -43.67,28.14 -43.06,53" /><path
               id="path208"
               style="fill:#ffffff;fill-opacity:1;fill-rule:nonzero;stroke:none"
               d="m 1967.1,3365.34 48.42,0 c 11.8,0 21.37,9.56 21.37,21.36 l 0,48.42 c 0,11.8 -9.57,21.36 -21.37,21.36 l -48.42,0 c -11.79,0 -21.36,-9.56 -21.36,-21.36 l 0,-48.42 c 0,-11.8 9.57,-21.36 21.36,-21.36" /><path
               id="path210"
               style="fill:#ee2b27;fill-opacity:1;fill-rule:nonzero;stroke:none"
               d="m 2893.63,3192.83 -0.07,7.32 -0.23,15.68 -0.45,31.38 -1.8,125.49 -3.58,250.99 c -0.02,6.73 -5.39,12.8 -11.75,13.81 -0.8,0.09 -1.6,0.2 -2.44,0.18 l -7.17,-0.01 -15.69,-0.1 -31.37,-0.2 -125.5,-0.81 -250.98,-0.99 c -5.51,0.03 -10.56,-4.38 -11.42,-9.61 -0.08,-0.66 -0.18,-1.31 -0.17,-2.02 l -0.01,-7.12 0.05,-15.69 0.11,-31.37 0.07,-125.49 c 0.22,-83.67 -0.9,-167.33 -1.29,-250.99 -0.45,-5.87 3.82,-11.84 9.93,-13.74 0.77,-0.19 1.57,-0.4 2.42,-0.48 1.28,-0.17 4.86,-0.15 7.18,-0.3 l 15.68,-0.7 31.38,-1.41 c 41.83,-1.81 83.66,-4.2 125.49,-5.33 83.66,-2.47 167.32,-0.96 250.98,0.28 10.09,0.14 19,8.19 20.38,17.66 0.15,1.18 0.27,2.36 0.25,3.57 z m 56.03,430.86 -3.59,-250.99 -1.8,-125.49 -0.45,-31.38 -0.22,-15.68 -0.17,-8.37 c -0.11,-4.03 -0.61,-8.04 -1.38,-12.01 -3.27,-15.89 -12.16,-30.39 -24.61,-40.47 -12.44,-10.09 -28.56,-15.62 -44.44,-15.49 -83.66,1.24 -167.32,2.76 -250.98,0.29 -41.83,-1.13 -83.66,-3.52 -125.49,-5.34 l -31.38,-1.4 -15.68,-0.7 c -2.91,-0.11 -4.57,-0.23 -8.51,-0.21 -4.39,0 -8.79,0.42 -13.17,1.15 -17.48,3.12 -33.92,12.41 -45.37,26.13 -11.52,13.64 -18.12,31.62 -18.31,49.55 -0.38,83.66 -1.51,167.32 -1.29,250.99 l 0.07,125.49 0.11,31.37 0.06,15.69 0.08,8.56 c 0.09,4.54 0.62,9.06 1.46,13.56 3.56,17.99 13.5,34.5 27.55,46.02 14.02,11.56 32.35,18.02 50.45,17.99 l 250.98,-1 125.5,-0.8 31.37,-0.21 15.69,-0.1 8.51,-0.1 c 4.4,-0.1 8.79,-0.62 13.15,-1.44 17.43,-3.48 33.39,-13.14 44.53,-26.76 11.18,-13.61 17.38,-31.35 17.33,-48.85" /><path
               id="path212"
               style="fill:#f47520;fill-opacity:1;fill-rule:nonzero;stroke:none"
               d="m 2763.31,3304.52 c -0.37,0.17 -0.86,0.15 -1.32,-0.04 0.44,0.02 0.88,0.03 1.32,0.04 z m -2.62,-0.08 -0.05,1.9 -0.23,7.69 -0.45,15.38 -1.8,61.53 -3.3,113.49 -2.6,-0.05 -15.39,-0.29 -61.52,-0.54 -111.38,-0.82 0.11,-15.18 0.07,-61.52 c 0.21,-38.34 -0.73,-76.68 -1.18,-115.02 l 0.38,-0.03 15.38,-1.41 c 20.51,-1.81 41.02,-4.21 61.53,-5.34 40.14,-2.41 80.29,-1.01 120.43,0.21 z m -208.22,7.52 c -0.04,-0.12 2.05,-0.14 3.08,-0.28 -0.51,0.11 -0.99,0.34 -1.52,0.34 -0.54,0.04 -1.07,0 -1.56,-0.06 z m 264.27,202.04 -3.59,-123.06 -1.8,-61.53 -0.45,-15.38 -0.22,-7.69 -0.15,-4.37 c -0.08,-2.7 -0.42,-5.38 -0.96,-8.04 -4.16,-21.63 -24.75,-37.86 -46.26,-37.2 -41.02,1.24 -82.03,2.76 -123.05,0.29 -20.51,-1.13 -41.02,-3.52 -61.53,-5.34 l -15.38,-1.4 -7.69,-0.7 c -1.58,-0.12 -1.91,-0.21 -4.51,-0.24 -3.06,-0.02 -6.13,0.24 -9.2,0.74 -12.25,2.09 -23.86,8.49 -31.91,18.1 -8.12,9.51 -12.85,22.2 -13.01,34.79 -0.39,41.02 -1.51,82.04 -1.29,123.06 l 0.07,61.52 0.11,15.39 0.06,7.69 0.06,4.56 c 0.07,3.2 0.43,6.41 1.04,9.59 4.68,25.87 29.13,45.75 55.21,45.25 l 123.06,-0.9 61.52,-0.54 15.39,-0.29 7.69,-0.15 4.51,-0.1 c 3.08,-0.09 6.16,-0.46 9.21,-1.06 24.81,-4.61 43.67,-28.14 43.07,-52.99" /><path
               id="path214"
               style="fill:#ffffff;fill-opacity:1;fill-rule:nonzero;stroke:none"
               d="m 2682.01,3454.05 -48.42,0 c -11.8,0 -21.36,-9.56 -21.36,-21.36 l 0,-48.42 c 0,-11.8 9.56,-21.36 21.36,-21.36 l 48.42,0 c 11.8,0 21.36,9.56 21.36,21.36 l 0,48.42 c 0,11.8 -9.56,21.36 -21.36,21.36" /><path
               id="path216"
               style="fill:#dfbe19;fill-opacity:1;fill-rule:nonzero;stroke:none"
               d="m 2486.42,1634.66 c -141.64,0 -214.71,61.77 -279.18,116.26 -59.62,50.39 -111.12,93.91 -218.14,93.91 -107,0 -158.49,-43.52 -218.1,-93.91 -64.46,-54.49 -137.53,-116.26 -279.15,-116.26 -141.63,0 -214.7,61.77 -279.17,116.26 -59.61,50.39 -111.09,93.91 -218.098,93.91 l 0,94.58 c 141.628,0 214.698,-61.77 279.168,-116.26 59.61,-50.39 111.09,-93.91 218.1,-93.91 107,0 158.48,43.52 218.09,93.91 64.47,54.49 137.53,116.26 279.16,116.26 141.64,0 214.72,-61.77 279.19,-116.26 59.62,-50.39 111.11,-93.91 218.13,-93.91 107.02,0 158.52,43.52 218.14,93.91 64.47,54.49 137.54,116.26 279.18,116.26 l 0,-94.58 c -107.02,0 -158.51,-43.52 -218.13,-93.91 -64.48,-54.49 -137.55,-116.26 -279.19,-116.26" /><path
               id="path218"
               style="fill:#ee2b27;fill-opacity:1;fill-rule:nonzero;stroke:none"
               d="m 1539.24,1898.25 c 0,-31.44 -25.49,-56.92 -56.92,-56.92 -31.44,0 -56.93,25.48 -56.93,56.92 0,31.44 25.49,56.92 56.93,56.92 31.43,0 56.92,-25.48 56.92,-56.92" /><path
               id="path220"
               style="fill:#ee2b27;fill-opacity:1;fill-rule:nonzero;stroke:none"
               d="m 2545.19,1898.25 c 0,-31.44 -25.48,-56.92 -56.92,-56.92 -31.44,0 -56.92,25.48 -56.92,56.92 0,31.44 25.48,56.92 56.92,56.92 31.44,0 56.92,-25.48 56.92,-56.92" /><path
               id="path222"
               style="fill:#ee2b27;fill-opacity:1;fill-rule:nonzero;stroke:none"
               d="m 2046.08,1483.55 c 0,-31.43 -25.48,-56.92 -56.92,-56.92 -31.44,0 -56.92,25.49 -56.92,56.92 0,31.44 25.48,56.93 56.92,56.93 31.44,0 56.92,-25.49 56.92,-56.93" /><path
               id="path224"
               style="fill:#ee2b27;fill-opacity:1;fill-rule:nonzero;stroke:none"
               d="m 994.582,1540.48 0,-113.85 c 31.438,0 56.918,25.49 56.918,56.92 0,31.44 -25.48,56.93 -56.918,56.93" /><path
               id="path226"
               style="fill:#ee2b27;fill-opacity:1;fill-rule:nonzero;stroke:none"
               d="m 2983.74,1540.48 c -31.44,0 -56.92,-25.49 -56.92,-56.93 0,-31.43 25.48,-56.92 56.92,-56.92 l 0,113.85" /><path
               id="path228"
               style="fill:#ee2b27;fill-opacity:1;fill-rule:nonzero;stroke:none"
               d="m 497.262,1449 c -141.641,0 -214.711,61.77 -279.188,116.26 -59.621,50.39 -111.109,93.92 -218.1325938,93.92 C -107.066,1659.18 -158.547,1615.65 -218.156,1565.26 -282.625,1510.77 -355.691,1449 -497.313,1449 c -141.628,0 -214.695,61.77 -279.164,116.26 -59.609,50.39 -111.097,93.92 -218.105,93.92 l 0,94.58 c 141.629,0 214.695,-61.77 279.168,-116.27 59.609,-50.39 111.094,-93.91 218.101,-93.91 107,0 158.485,43.52 218.094,93.91 64.469,54.5 137.531,116.27 279.1604062,116.27 C 141.578,1753.76 214.652,1691.99 279.129,1637.49 c 59.617,-50.39 111.109,-93.91 218.133,-93.91 107.019,0 158.511,43.52 218.133,93.91 64.472,54.5 137.546,116.27 279.187,116.27 l 0,-94.58 c -107.023,0 -158.516,-43.53 -218.137,-93.92 C 711.973,1510.77 638.898,1449 497.262,1449" /><path
               id="path230"
               style="fill:#f47520;fill-opacity:1;fill-rule:nonzero;stroke:none"
               d="m 497.262,1541.83 c -141.641,0 -214.711,61.77 -279.188,116.26 C 158.453,1708.48 106.965,1752 -0.0585938,1752 -107.066,1752 -158.547,1708.48 -218.156,1658.09 c -64.469,-54.49 -137.535,-116.26 -279.157,-116.26 -141.628,0 -214.695,61.77 -279.164,116.26 -59.609,50.39 -111.097,93.91 -218.105,93.91 l 0,94.58 c 141.629,0 214.695,-61.77 279.168,-116.26 59.609,-50.39 111.094,-93.91 218.101,-93.91 107,0 158.485,43.52 218.094,93.91 64.469,54.49 137.531,116.26 279.1604062,116.26 C 141.578,1846.58 214.652,1784.81 279.129,1730.32 c 59.617,-50.39 111.109,-93.91 218.133,-93.91 107.019,0 158.511,43.52 218.133,93.91 64.472,54.49 137.546,116.26 279.187,116.26 l 0,-94.58 c -107.023,0 -158.516,-43.52 -218.137,-93.91 -64.472,-54.49 -137.547,-116.26 -279.183,-116.26" /><path
               id="path232"
               style="fill:#f47520;fill-opacity:1;fill-rule:nonzero;stroke:none"
               d="M -497.34,2356.8 0.0390625,2854.18 -994.582,2854.04 -497.34,2356.8 Z" /><path
               id="path234"
               style="fill:#f47520;fill-opacity:1;fill-rule:nonzero;stroke:none"
               d="m 994.582,2854.24 0,-0.2 -497.324,-497.32 -497.129094,497.32 994.453094,0.2" /><path
               id="path236"
               style="fill:#0d1d22;fill-opacity:1;fill-rule:nonzero;stroke:none"
               d="m 233.156,2757.52 528.438,0.11 -264.328,-264.34 -264.11,264.23 z" /><path
               id="path238"
               style="fill:#dfbe19;fill-opacity:1;fill-rule:nonzero;stroke:none"
               d="m 384.738,2694.73 225.176,0.06 -112.637,-112.64 -112.539,112.58 z" /><path
               id="path240"
               style="fill:#f47520;fill-opacity:1;fill-rule:nonzero;stroke:none"
               d="m -499.074,2193.11 0,0.19 L 0.113281,2692.49 499.109,2193.3 l -998.183,-0.19" /><path
               id="path242"
               style="fill:#0d1d22;fill-opacity:1;fill-rule:nonzero;stroke:none"
               d="M 265.203,2290.19 -265.211,2290.08 0.105469,2555.4 265.203,2290.19 Z" /><path
               id="path244"
               style="fill:#dfbe19;fill-opacity:1;fill-rule:nonzero;stroke:none"
               d="M 113.059,2353.21 -112.965,2353.16 0.09375,2466.22 113.059,2353.21 Z" /><path
               id="path246"
               style="fill:#f47520;fill-opacity:1;fill-rule:nonzero;stroke:none"
               d="m 994.582,2692.4 0,-499.17 -499.062,-0.11 0,0.22 499.062,499.06" /><path
               id="path248"
               style="fill:#0d1d22;fill-opacity:1;fill-rule:nonzero;stroke:none"
               d="m 994.582,2555.26 0,-265.14 -265.242,0 265.242,265.14 z" /><path
               id="path250"
               style="fill:#dfbe19;fill-opacity:1;fill-rule:nonzero;stroke:none"
               d="m 994.582,2466.14 0,-112.97 -112.973,0 112.973,112.97 z" /><path
               id="path252"
               style="fill:#ffffff;fill-opacity:1;fill-rule:nonzero;stroke:none"
               d="m 994.582,3031.97 0,-63 -1989.133,0 0,63 1989.133,0" /><path
               id="path254"
               style="fill:#ffffff;fill-opacity:1;fill-rule:nonzero;stroke:none"
               d="m 994.582,1340.06 0,-63.01 -1989.133,0 0,63.01 1989.133,0" /><path
               id="path256"
               style="fill:#ffffff;fill-opacity:1;fill-rule:nonzero;stroke:none"
               d="m 994.582,2096.6 0,-63.01 -1989.133,0 0,63.01 1989.133,0" /><path
               id="path258"
               style="fill:#ee2b27;fill-opacity:1;fill-rule:nonzero;stroke:none"
               d="m -233.672,3626.56 0.07,-7.31 0.223,-15.69 0.449,-31.37 1.797,-125.5 3.59,-250.98 c 0.016,-6.73 5.391,-12.81 11.75,-13.81 0.797,-0.1 1.594,-0.2 2.434,-0.19 l 7.175,0.01 15.688,0.1 31.371,0.2 125.4922,0.81 250.9878,1 c 5.508,-0.04 10.555,4.37 11.422,9.6 0.082,0.66 0.18,1.32 0.168,2.02 l 0.016,7.13 -0.059,15.68 -0.113,31.38 -0.066,125.49 c -0.223,83.66 0.906,167.32 1.293,250.99 0.449,5.86 -3.821,11.83 -9.93,13.74 -0.777,0.19 -1.566,0.39 -2.418,0.47 -1.285,0.18 -4.859,0.15 -7.18,0.31 l -15.683,0.7 -31.375,1.4 c -41.832,1.82 -83.6644,4.21 -125.4925,5.34 -83.6641,2.47 -167.3245,0.96 -250.9885,-0.29 -10.086,-0.13 -19,-8.18 -20.375,-17.65 -0.148,-1.18 -0.273,-2.36 -0.246,-3.58 z m -56.031,-430.85 3.586,250.98 1.801,125.5 0.449,31.37 0.222,15.69 0.168,8.37 c 0.106,4.02 0.606,8.03 1.379,12.01 3.27,15.89 12.16,30.39 24.61,40.46 12.449,10.09 28.558,15.62 44.437,15.49 83.664,-1.24 167.3244,-2.75 250.9885,-0.29 41.8281,1.13 83.6605,3.53 125.4925,5.34 l 31.375,1.41 15.683,0.7 c 2.91,0.1 4.571,0.23 8.504,0.2 4.391,0.01 8.785,-0.41 13.168,-1.15 17.488,-3.12 33.922,-12.4 45.375,-26.12 11.52,-13.65 18.117,-31.63 18.305,-49.55 0.39,-83.67 1.515,-167.33 1.297,-250.99 l -0.071,-125.49 -0.113,-31.38 -0.055,-15.68 -0.085,-8.57 c -0.086,-4.53 -0.614,-9.06 -1.461,-13.56 -3.555,-17.99 -13.5,-34.49 -27.543,-46.02 -14.028,-11.56 -32.356,-18.01 -50.454,-17.98 l -250.9878,0.99 -125.4922,0.81 -31.371,0.2 -15.688,0.1 -8.507,0.11 c -4.403,0.09 -8.793,0.61 -13.153,1.44 -17.429,3.48 -33.398,13.14 -44.535,26.76 -11.172,13.61 -17.379,31.34 -17.324,48.85" /><path
               id="path260"
               style="fill:#f47520;fill-opacity:1;fill-rule:nonzero;stroke:none"
               d="m -103.359,3514.87 c 0.375,-0.16 0.863,-0.15 1.328,0.04 -0.446,-0.01 -0.887,-0.03 -1.328,-0.04 z m 2.621,0.08 0.054,-1.89 0.223,-7.7 0.453,-15.38 1.7971,-61.52 3.3086,-113.5 2.6015,0.05 15.3828,0.29 61.5274,0.55 111.3711,0.81 -0.1094,15.18 -0.0703,61.53 c -0.207,38.34 0.7383,76.68 1.1797,115.02 l -0.375,0.03 -15.3789,1.4 c -20.5118,1.82 -41.0196,4.21 -61.5313,5.34 -40.1406,2.42 -80.2891,1.01 -120.4333,-0.21 z m 208.218,-7.51 c 0.043,0.12 -2.05,0.14 -3.07,0.27 0.508,-0.11 0.988,-0.34 1.516,-0.33 0.539,-0.05 1.07,-0.01 1.554,0.06 z m -264.261,-202.04 3.586,123.06 1.797,61.52 0.449,15.38 0.226,7.7 0.141,4.37 c 0.086,2.69 0.43,5.37 0.965,8.04 4.164,21.63 24.754,37.86 46.258,37.19 41.0192,-1.24 82.0387,-2.75 123.0543,-0.29 20.5117,1.14 41.0195,3.53 61.5313,5.34 l 15.3789,1.41 7.6915,0.7 c 1.578,0.12 1.902,0.2 4.508,0.23 3.054,0.02 6.129,-0.24 9.195,-0.74 12.254,-2.08 23.859,-8.49 31.91,-18.1 8.125,-9.51 12.856,-22.19 13.012,-34.79 0.387,-41.02 1.516,-82.03 1.293,-123.05 l -0.07,-61.53 -0.11,-15.38 -0.055,-7.69 -0.062,-4.57 c -0.066,-3.2 -0.434,-6.4 -1.047,-9.59 -4.672,-25.86 -29.125,-45.74 -55.207,-45.24 l -123.0546,0.89 -61.5274,0.55 -15.3828,0.29 -7.6914,0.15 -4.5158,0.1 c -3.078,0.08 -6.156,0.45 -9.211,1.05 -24.808,4.62 -43.668,28.14 -43.062,53" /><path
               id="path262"
               style="fill:#ffffff;fill-opacity:1;fill-rule:nonzero;stroke:none"
               d="m -22.0586,3365.34 48.4219,0 c 11.7969,0 21.3633,9.56 21.3633,21.36 l 0,48.42 c 0,11.8 -9.5664,21.36 -21.3633,21.36 l -48.4219,0 c -11.7969,0 -21.3633,-9.56 -21.3633,-21.36 l 0,-48.42 c 0,-11.8 9.5664,-21.36 21.3633,-21.36" /><path
               id="path264"
               style="fill:#ee2b27;fill-opacity:1;fill-rule:nonzero;stroke:none"
               d="m 904.465,3192.83 -0.07,7.32 -0.223,15.68 -0.449,31.38 -1.801,125.49 -3.586,250.99 c -0.016,6.73 -5.391,12.8 -11.75,13.81 -0.797,0.09 -1.598,0.2 -2.434,0.18 l -7.175,-0.01 -15.688,-0.1 -31.371,-0.2 -125.496,-0.81 -250.984,-0.99 c -5.508,0.03 -10.555,-4.38 -11.422,-9.61 -0.082,-0.66 -0.18,-1.31 -0.168,-2.02 l -0.012,-7.12 0.055,-15.69 0.113,-31.37 0.066,-125.49 c 0.223,-83.67 -0.906,-167.33 -1.293,-250.99 -0.449,-5.87 3.821,-11.84 9.934,-13.74 0.773,-0.19 1.562,-0.4 2.414,-0.48 1.285,-0.17 4.859,-0.15 7.18,-0.3 l 15.683,-0.7 31.375,-1.41 c 41.832,-1.81 83.664,-4.2 125.492,-5.33 83.665,-2.47 167.325,-0.96 250.989,0.28 10.086,0.14 19,8.19 20.375,17.66 0.148,1.18 0.273,2.36 0.246,3.57 z m 56.031,430.86 -3.59,-250.99 -1.797,-125.49 -0.449,-31.38 -0.222,-15.68 -0.168,-8.37 c -0.106,-4.03 -0.61,-8.04 -1.379,-12.01 -3.27,-15.89 -12.161,-30.39 -24.61,-40.47 -12.445,-10.09 -28.558,-15.62 -44.437,-15.49 -83.664,1.24 -167.324,2.76 -250.989,0.29 -41.828,-1.13 -83.66,-3.52 -125.492,-5.34 l -31.375,-1.4 -15.683,-0.7 c -2.91,-0.11 -4.571,-0.23 -8.504,-0.21 -4.395,0 -8.785,0.42 -13.168,1.15 -17.488,3.12 -33.922,12.41 -45.375,26.13 -11.52,13.64 -18.117,31.62 -18.305,49.55 -0.39,83.66 -1.515,167.32 -1.297,250.99 l 0.071,125.49 0.113,31.37 0.055,15.69 0.085,8.56 c 0.086,4.54 0.614,9.06 1.461,13.56 3.555,17.99 13.5,34.5 27.543,46.02 14.028,11.56 32.352,18.02 50.454,17.99 l 250.984,-1 125.496,-0.8 31.371,-0.21 15.688,-0.1 8.507,-0.1 c 4.403,-0.1 8.793,-0.62 13.153,-1.44 17.429,-3.48 33.394,-13.14 44.535,-26.76 11.172,-13.61 17.379,-31.35 17.324,-48.85" /><path
               id="path266"
               style="fill:#f47520;fill-opacity:1;fill-rule:nonzero;stroke:none"
               d="m 774.152,3304.52 c -0.375,0.17 -0.863,0.15 -1.328,-0.04 0.446,0.02 0.887,0.03 1.328,0.04 z m -2.621,-0.08 -0.054,1.9 -0.227,7.69 -0.449,15.38 -1.797,61.53 -3.309,113.49 -2.601,-0.05 -15.383,-0.29 -61.527,-0.54 -111.371,-0.82 0.109,-15.18 0.07,-61.52 c 0.207,-38.34 -0.738,-76.68 -1.179,-115.02 l 0.375,-0.03 15.378,-1.41 c 20.512,-1.81 41.02,-4.21 61.532,-5.34 40.14,-2.41 80.289,-1.01 120.433,0.21 z m -208.218,7.52 c -0.043,-0.12 2.046,-0.14 3.07,-0.28 -0.508,0.11 -0.988,0.34 -1.516,0.34 -0.539,0.04 -1.07,0 -1.554,-0.06 z m 264.261,202.04 -3.586,-123.06 -1.797,-61.53 -0.449,-15.38 -0.226,-7.69 -0.145,-4.37 c -0.082,-2.7 -0.426,-5.38 -0.961,-8.04 -4.164,-21.63 -24.754,-37.86 -46.258,-37.2 -41.019,1.24 -82.039,2.76 -123.054,0.29 -20.512,-1.13 -41.02,-3.52 -61.532,-5.34 l -15.378,-1.4 -7.696,-0.7 c -1.574,-0.12 -1.898,-0.21 -4.504,-0.24 -3.058,-0.02 -6.129,0.24 -9.195,0.74 -12.254,2.09 -23.859,8.49 -31.91,18.1 -8.125,9.51 -12.856,22.2 -13.012,34.79 -0.387,41.02 -1.516,82.04 -1.293,123.06 l 0.067,61.52 0.113,15.39 0.055,7.69 0.062,4.56 c 0.066,3.2 0.434,6.41 1.047,9.59 4.672,25.87 29.125,45.75 55.207,45.25 l 123.055,-0.9 61.527,-0.54 15.383,-0.29 7.691,-0.15 4.516,-0.1 c 3.078,-0.09 6.156,-0.46 9.211,-1.06 24.808,-4.61 43.668,-28.14 43.062,-52.99" /><path
               id="path268"
               style="fill:#ffffff;fill-opacity:1;fill-rule:nonzero;stroke:none"
               d="m 692.852,3454.05 -48.422,0 c -11.797,0 -21.364,-9.56 -21.364,-21.36 l 0,-48.42 c 0,-11.8 9.567,-21.36 21.364,-21.36 l 48.422,0 c 11.796,0 21.363,9.56 21.363,21.36 l 0,48.42 c 0,11.8 -9.567,21.36 -21.363,21.36" /><path
               id="path270"
               style="fill:#dfbe19;fill-opacity:1;fill-rule:nonzero;stroke:none"
               d="m 497.262,1634.66 c -141.641,0 -214.711,61.77 -279.188,116.26 -59.621,50.39 -111.109,93.91 -218.1325938,93.91 -107.0074062,0 -158.4884062,-43.52 -218.0974062,-93.91 -64.469,-54.49 -137.535,-116.26 -279.157,-116.26 -141.628,0 -214.695,61.77 -279.164,116.26 -59.609,50.39 -111.097,93.91 -218.105,93.91 l 0,94.58 c 141.629,0 214.695,-61.77 279.168,-116.26 59.609,-50.39 111.094,-93.91 218.101,-93.91 107,0 158.485,43.52 218.094,93.91 64.469,54.49 137.531,116.26 279.1604062,116.26 C 141.578,1939.41 214.652,1877.64 279.129,1823.15 c 59.617,-50.39 111.109,-93.91 218.133,-93.91 107.019,0 158.511,43.52 218.133,93.91 64.472,54.49 137.546,116.26 279.187,116.26 l 0,-94.58 c -107.023,0 -158.516,-43.52 -218.137,-93.91 -64.472,-54.49 -137.547,-116.26 -279.183,-116.26" /><path
               id="path272"
               style="fill:#ee2b27;fill-opacity:1;fill-rule:nonzero;stroke:none"
               d="m 556.031,1898.25 c 0,-31.44 -25.484,-56.92 -56.922,-56.92 -31.437,0 -56.921,25.48 -56.921,56.92 0,31.44 25.484,56.92 56.921,56.92 31.438,0 56.922,-25.48 56.922,-56.92" /><path
               id="path274"
               style="fill:#ee2b27;fill-opacity:1;fill-rule:nonzero;stroke:none"
               d="m 56.9219,1483.55 c 0,-31.43 -25.4883,-56.92 -56.92580625,-56.92 -31.43749375,0 -56.92189375,25.49 -56.92189375,56.92 0,31.44 25.4844,56.93 56.92189375,56.93 C 31.4336,1540.48 56.9219,1514.99 56.9219,1483.55" /><path
               id="path276"
               style="fill:#ee2b27;fill-opacity:1;fill-rule:nonzero;stroke:none"
               d="m 994.582,1540.48 c -31.437,0 -56.926,-25.49 -56.926,-56.93 0,-31.43 25.489,-56.92 56.926,-56.92 l 0,113.85" /><path
               id="path278"
               style="fill:#ee2b27;fill-opacity:1;fill-rule:nonzero;stroke:none"
               d="m 3481,3939 c -141.63,0 -214.71,61.77 -279.18,116.26 -59.62,50.39 -111.11,93.92 -218.14,93.92 -107,0 -158.48,-43.53 -218.09,-93.92 -64.47,-54.49 -137.54,-116.26 -279.16,-116.26 -141.63,0 -214.7,61.77 -279.16,116.26 -59.61,50.39 -111.1,93.92 -218.11,93.92 l 0,94.58 c 141.63,0 214.7,-61.77 279.17,-116.27 59.61,-50.39 111.09,-93.91 218.1,-93.91 107,0 158.48,43.52 218.09,93.91 64.47,54.5 137.54,116.27 279.16,116.27 141.64,0 214.71,-61.77 279.19,-116.27 59.62,-50.39 111.11,-93.91 218.13,-93.91 107.03,0 158.52,43.52 218.14,93.91 64.47,54.5 137.55,116.27 279.18,116.27 l 0,-94.58 c -107.02,0 -158.51,-43.53 -218.13,-93.92 C 3695.72,4000.77 3622.64,3939 3481,3939" /><path
               id="path280"
               style="fill:#f47520;fill-opacity:1;fill-rule:nonzero;stroke:none"
               d="m 3481,4031.83 c -141.63,0 -214.71,61.77 -279.18,116.26 -59.62,50.39 -111.11,93.92 -218.14,93.92 -107,0 -158.48,-43.53 -218.09,-93.92 -64.47,-54.49 -137.54,-116.26 -279.16,-116.26 -141.63,0 -214.7,61.77 -279.16,116.26 -59.61,50.39 -111.1,93.92 -218.11,93.92 l 0,94.57 c 141.63,0 214.7,-61.77 279.17,-116.26 59.61,-50.39 111.09,-93.91 218.1,-93.91 107,0 158.48,43.52 218.09,93.91 64.47,54.49 137.54,116.26 279.16,116.26 141.64,0 214.71,-61.77 279.19,-116.26 59.62,-50.39 111.11,-93.91 218.13,-93.91 107.03,0 158.52,43.52 218.14,93.91 64.47,54.49 137.55,116.26 279.18,116.26 l 0,-94.57 c -107.02,0 -158.51,-43.53 -218.13,-93.92 -64.47,-54.49 -137.55,-116.26 -279.19,-116.26" /><path
               id="path282"
               style="fill:#f47520;fill-opacity:1;fill-rule:nonzero;stroke:none"
               d="m 2486.4,4846.8 497.38,497.38 -994.62,-0.14 497.24,-497.24 z" /><path
               id="path284"
               style="fill:#f47520;fill-opacity:1;fill-rule:nonzero;stroke:none"
               d="m 3978.32,5344.24 0,-0.2 -497.32,-497.32 -497.13,497.32 994.45,0.2" /><path
               id="path286"
               style="fill:#f47520;fill-opacity:1;fill-rule:nonzero;stroke:none"
               d="m 2488.28,4683.34 -498.95,-0.11 0,499.06 0.1,0.11 498.85,-499.06" /><path
               id="path288"
               style="fill:#0d1d22;fill-opacity:1;fill-rule:nonzero;stroke:none"
               d="m 2254.41,4780.21 -265.08,0 0,264.97 0.1,0.11 264.98,-265.08" /><path
               id="path290"
               style="fill:#dfbe19;fill-opacity:1;fill-rule:nonzero;stroke:none"
               d="m 2102.27,4843.14 -112.94,0 0,113.05 112.94,-113.05 z" /><path
               id="path292"
               style="fill:#f47520;fill-opacity:1;fill-rule:nonzero;stroke:none"
               d="m 2484.67,4683.11 0,0.19 499.19,499.19 498.99,-499.19 -998.18,-0.19" /><path
               id="path294"
               style="fill:#0d1d22;fill-opacity:1;fill-rule:nonzero;stroke:none"
               d="m 3248.95,4780.19 -530.42,-0.11 265.32,265.32 265.1,-265.21 z" /><path
               id="path296"
               style="fill:#dfbe19;fill-opacity:1;fill-rule:nonzero;stroke:none"
               d="m 3096.8,4843.21 -226.02,-0.05 113.06,113.06 112.96,-113.01 z" /><path
               id="path298"
               style="fill:#f47520;fill-opacity:1;fill-rule:nonzero;stroke:none"
               d="m 3978.32,5182.4 0,-499.17 -499.06,-0.1 0,0.21 499.06,499.06" /><path
               id="path300"
               style="fill:#0d1d22;fill-opacity:1;fill-rule:nonzero;stroke:none"
               d="m 3978.32,5045.26 0,-265.14 -265.24,0 265.24,265.14 z" /><path
               id="path302"
               style="fill:#dfbe19;fill-opacity:1;fill-rule:nonzero;stroke:none"
               d="m 3978.32,4956.14 0,-112.96 -112.97,0 112.97,112.96 z" /><path
               id="path304"
               style="fill:#ffffff;fill-opacity:1;fill-rule:nonzero;stroke:none"
               d="m 3978.32,3830.06 0,-63.01 -1989.13,0 0,63.01 1989.13,0" /><path
               id="path306"
               style="fill:#ffffff;fill-opacity:1;fill-rule:nonzero;stroke:none"
               d="m 3978.32,4586.6 0,-63.01 -1989.13,0 0,63.01 1989.13,0" /><path
               id="path308"
               style="fill:#dfbe19;fill-opacity:1;fill-rule:nonzero;stroke:none"
               d="m 3481,4124.66 c -141.63,0 -214.71,61.77 -279.18,116.26 -59.62,50.39 -111.11,93.91 -218.14,93.91 -107,0 -158.48,-43.52 -218.09,-93.91 -64.47,-54.49 -137.54,-116.26 -279.16,-116.26 -141.63,0 -214.7,61.77 -279.16,116.26 -59.61,50.39 -111.1,93.91 -218.11,93.91 l 0,94.58 c 141.63,0 214.7,-61.77 279.17,-116.26 59.61,-50.39 111.09,-93.91 218.1,-93.91 107,0 158.48,43.52 218.09,93.91 64.47,54.49 137.54,116.26 279.16,116.26 141.64,0 214.71,-61.77 279.19,-116.26 59.62,-50.39 111.11,-93.91 218.13,-93.91 107.03,0 158.52,43.52 218.14,93.91 64.47,54.49 137.55,116.26 279.18,116.26 l 0,-94.58 c -107.02,0 -158.51,-43.52 -218.13,-93.91 -64.47,-54.49 -137.55,-116.26 -279.19,-116.26" /><path
               id="path310"
               style="fill:#ee2b27;fill-opacity:1;fill-rule:nonzero;stroke:none"
               d="m 2533.82,4388.25 c 0,-31.44 -25.48,-56.92 -56.92,-56.92 -31.44,0 -56.92,25.48 -56.92,56.92 0,31.44 25.48,56.92 56.92,56.92 31.44,0 56.92,-25.48 56.92,-56.92" /><path
               id="path312"
               style="fill:#ee2b27;fill-opacity:1;fill-rule:nonzero;stroke:none"
               d="m 3539.77,4388.25 c 0,-31.44 -25.48,-56.92 -56.92,-56.92 -31.44,0 -56.92,25.48 -56.92,56.92 0,31.44 25.48,56.92 56.92,56.92 31.44,0 56.92,-25.48 56.92,-56.92" /><path
               id="path314"
               style="fill:#ee2b27;fill-opacity:1;fill-rule:nonzero;stroke:none"
               d="m 3040.66,3973.55 c 0,-31.43 -25.48,-56.92 -56.92,-56.92 -31.44,0 -56.92,25.49 -56.92,56.92 0,31.44 25.48,56.93 56.92,56.93 31.44,0 56.92,-25.49 56.92,-56.93" /><path
               id="path316"
               style="fill:#ee2b27;fill-opacity:1;fill-rule:nonzero;stroke:none"
               d="m 1989.16,4030.48 0,-113.85 c 31.44,0 56.92,25.49 56.92,56.92 0,31.44 -25.48,56.93 -56.92,56.93" /><path
               id="path318"
               style="fill:#ee2b27;fill-opacity:1;fill-rule:nonzero;stroke:none"
               d="m 3978.32,4030.48 c -31.43,0 -56.92,-25.49 -56.92,-56.93 0,-31.43 25.49,-56.92 56.92,-56.92 l 0,113.85" /><path
               id="path320"
               style="fill:#ee2b27;fill-opacity:1;fill-rule:nonzero;stroke:none"
               d="m 1491.84,3939 c -141.64,0 -214.71,61.77 -279.18,116.26 -59.62,50.39 -111.12,93.92 -218.137,93.92 -107.007,0 -158.492,-43.53 -218.097,-93.92 C 711.953,4000.77 638.891,3939 497.27,3939 c -141.629,0 -214.7,61.77 -279.168,116.26 -59.61,50.39 -111.094,93.92 -218.102,93.92 l 0,94.58 c 141.629,0 214.695,-61.77 279.164,-116.27 59.609,-50.39 111.098,-93.91 218.106,-93.91 107,0 158.484,43.52 218.093,93.91 64.469,54.5 137.532,116.27 279.16,116.27 141.637,0 214.707,-61.77 279.187,-116.27 59.62,-50.39 111.11,-93.91 218.13,-93.91 107.02,0 158.52,43.52 218.14,93.91 64.47,54.5 137.54,116.27 279.18,116.27 l 0,-94.58 c -107.02,0 -158.51,-43.53 -218.13,-93.92 C 1706.55,4000.77 1633.48,3939 1491.84,3939" /><path
               id="path322"
               style="fill:#f47520;fill-opacity:1;fill-rule:nonzero;stroke:none"
               d="m 1491.84,4031.83 c -141.64,0 -214.71,61.77 -279.18,116.26 -59.62,50.39 -111.12,93.92 -218.137,93.92 -107.007,0 -158.492,-43.53 -218.097,-93.92 -64.473,-54.49 -137.535,-116.26 -279.156,-116.26 -141.629,0 -214.7,61.77 -279.168,116.26 -59.61,50.39 -111.094,93.92 -218.102,93.92 l 0,94.57 c 141.629,0 214.695,-61.77 279.164,-116.26 59.609,-50.39 111.098,-93.91 218.106,-93.91 107,0 158.484,43.52 218.093,93.91 64.469,54.49 137.532,116.26 279.16,116.26 141.637,0 214.707,-61.77 279.187,-116.26 59.62,-50.39 111.11,-93.91 218.13,-93.91 107.02,0 158.52,43.52 218.14,93.91 64.47,54.49 137.54,116.26 279.18,116.26 l 0,-94.57 c -107.02,0 -158.51,-43.53 -218.13,-93.92 -64.48,-54.49 -137.55,-116.26 -279.19,-116.26" /><path
               id="path324"
               style="fill:#f47520;fill-opacity:1;fill-rule:nonzero;stroke:none"
               d="M 497.242,4846.8 994.621,5344.18 0,5344.04 497.242,4846.8 Z" /><path
               id="path326"
               style="fill:#f47520;fill-opacity:1;fill-rule:nonzero;stroke:none"
               d="m 1989.16,5344.24 0,-0.2 -497.32,-497.32 -497.133,497.32 994.453,0.2" /><path
               id="path328"
               style="fill:#f47520;fill-opacity:1;fill-rule:nonzero;stroke:none"
               d="m 499.121,4683.34 -498.956937,-0.11 0,499.06 0.105468,0.11 L 499.121,4683.34" /><path
               id="path330"
               style="fill:#0d1d22;fill-opacity:1;fill-rule:nonzero;stroke:none"
               d="m 265.246,4780.21 -265.081937,0 0,264.97 0.105468,0.11 L 265.246,4780.21" /><path
               id="path332"
               style="fill:#dfbe19;fill-opacity:1;fill-rule:nonzero;stroke:none"
               d="m 113.109,4843.14 -112.944937,0 0,113.05 L 113.109,4843.14 Z" /><path
               id="path334"
               style="fill:#f47520;fill-opacity:1;fill-rule:nonzero;stroke:none"
               d="m 495.508,4683.11 0,0.19 499.187,499.19 498.995,-499.19 -998.182,-0.19" /><path
               id="path336"
               style="fill:#0d1d22;fill-opacity:1;fill-rule:nonzero;stroke:none"
               d="m 1259.79,4780.19 -530.419,-0.11 265.317,265.32 265.102,-265.21 z" /><path
               id="path338"
               style="fill:#dfbe19;fill-opacity:1;fill-rule:nonzero;stroke:none"
               d="m 1107.64,4843.21 -226.023,-0.05 113.059,113.06 112.964,-113.01 z" /><path
               id="path340"
               style="fill:#f47520;fill-opacity:1;fill-rule:nonzero;stroke:none"
               d="m 1989.16,5182.4 0,-499.17 -499.06,-0.1 0,0.21 499.06,499.06" /><path
               id="path342"
               style="fill:#0d1d22;fill-opacity:1;fill-rule:nonzero;stroke:none"
               d="m 1989.16,5045.26 0,-265.14 -265.24,0 265.24,265.14 z" /><path
               id="path344"
               style="fill:#dfbe19;fill-opacity:1;fill-rule:nonzero;stroke:none"
               d="m 1989.16,4956.14 0,-112.96 -112.97,0 112.97,112.96 z" /><path
               id="path346"
               style="fill:#ffffff;fill-opacity:1;fill-rule:nonzero;stroke:none"
               d="m 1989.16,3830.06 0,-63.01 -1989.12875,0 0,63.01 1989.12875,0" /><path
               id="path348"
               style="fill:#ffffff;fill-opacity:1;fill-rule:nonzero;stroke:none"
               d="m 1989.16,4586.6 0,-63.01 -1989.12875,0 0,63.01 1989.12875,0" /><path
               id="path350"
               style="fill:#dfbe19;fill-opacity:1;fill-rule:nonzero;stroke:none"
               d="m 1491.84,4124.66 c -141.64,0 -214.71,61.77 -279.18,116.26 -59.62,50.39 -111.12,93.91 -218.137,93.91 -107.007,0 -158.492,-43.52 -218.097,-93.91 -64.473,-54.49 -137.535,-116.26 -279.156,-116.26 -141.629,0 -214.7,61.77 -279.168,116.26 -59.61,50.39 -111.094,93.91 -218.102,93.91 l 0,94.58 c 141.629,0 214.695,-61.77 279.164,-116.26 59.609,-50.39 111.098,-93.91 218.106,-93.91 107,0 158.484,43.52 218.093,93.91 64.469,54.49 137.532,116.26 279.16,116.26 141.637,0 214.707,-61.77 279.187,-116.26 59.62,-50.39 111.11,-93.91 218.13,-93.91 107.02,0 158.52,43.52 218.14,93.91 64.47,54.49 137.54,116.26 279.18,116.26 l 0,-94.58 c -107.02,0 -158.51,-43.52 -218.13,-93.91 -64.48,-54.49 -137.55,-116.26 -279.19,-116.26" /><path
               id="path352"
               style="fill:#ee2b27;fill-opacity:1;fill-rule:nonzero;stroke:none"
               d="m 544.66,4388.25 c 0,-31.44 -25.484,-56.92 -56.926,-56.92 -31.433,0 -56.921,25.48 -56.921,56.92 0,31.44 25.488,56.92 56.921,56.92 31.442,0 56.926,-25.48 56.926,-56.92" /><path
               id="path354"
               style="fill:#ee2b27;fill-opacity:1;fill-rule:nonzero;stroke:none"
               d="m 1550.61,4388.25 c 0,-31.44 -25.48,-56.92 -56.92,-56.92 -31.44,0 -56.92,25.48 -56.92,56.92 0,31.44 25.48,56.92 56.92,56.92 31.44,0 56.92,-25.48 56.92,-56.92" /><path
               id="path356"
               style="fill:#ee2b27;fill-opacity:1;fill-rule:nonzero;stroke:none"
               d="m 1051.5,3973.55 c 0,-31.43 -25.48,-56.92 -56.922,-56.92 -31.437,0 -56.922,25.49 -56.922,56.92 0,31.44 25.485,56.93 56.922,56.93 31.442,0 56.922,-25.49 56.922,-56.93" /><path
               id="path358"
               style="fill:#ee2b27;fill-opacity:1;fill-rule:nonzero;stroke:none"
               d="m 0,4030.48 0,-113.85 c 31.4375,0 56.9219,25.49 56.9219,56.92 0,31.44 -25.4844,56.93 -56.9219,56.93" /><path
               id="path360"
               style="fill:#ee2b27;fill-opacity:1;fill-rule:nonzero;stroke:none"
               d="m 1989.16,4030.48 c -31.44,0 -56.92,-25.49 -56.92,-56.93 0,-31.43 25.48,-56.92 56.92,-56.92 l 0,113.85" /></g></g></g></pattern></defs><g
     transform="matrix(1.3333333,0,0,-1.3333333,0,666.66667)"
     id="g10"><g
       transform="scale(0.1)"
       id="g12"><path
         id="path14"
         style="fill:#0d1d22;fill-opacity:1;fill-rule:nonzero;stroke:none"
         d="M 5000,0 H 0 V 5000 H 5000 V 0" /><path
         id="path16"
         style="fill:#0d1d22;fill-opacity:1;fill-rule:nonzero;stroke:none"
         d="M 5000,0 H 0 V 5000 H 5000 V 0" /><path
         id="path370"
         style="fill:url(#pattern368);fill-opacity:1;fill-rule:nonzero;stroke:none"
         d="M 5000,0 H 0 V 5000 H 5000 V 0" /></g></g></svg>