<?xml version="1.0" standalone="no"?>
<!DOCTYPE svg PUBLIC "-//W3C//DTD SVG 20010904//EN"
 "http://www.w3.org/TR/2001/REC-SVG-20010904/DTD/svg10.dtd">
<svg version="1.0" xmlns="http://www.w3.org/2000/svg"
 width="2000.000000pt" height="2000.000000pt" viewBox="0 0 2000.000000 2000.000000"
 preserveAspectRatio="xMidYMid meet">

<g transform="translate(0.000000,2000.000000) scale(0.100000,-0.100000)"
fill="#000000" stroke="none">
<path d="M0 19953 l0 -48 227 -227 228 -228 -228 0 -227 0 0 -125 0 -125 532
0 533 0 -400 400 -400 400 -132 0 -133 0 0 -47z"/>
<path d="M1398 19408 l592 -593 592 593 593 592 -330 0 -330 0 -265 -265 -265
-265 -265 265 -265 265 -325 0 -325 0 593 -592z"/>
<path d="M3305 19600 l-400 -400 1070 0 1070 0 -400 400 -400 400 -270 0 -270
0 -400 -400z m905 75 l225 -225 -455 0 -455 0 225 225 c124 124 227 225 230
225 3 0 106 -101 230 -225z"/>
<path d="M5375 19410 l590 -590 -1800 -1 c-990 -1 -2332 -1 -2983 1 l-1182 2
0 -196 0 -196 10000 0 10000 0 0 196 0 197 -1053 -3 c-578 -2 -1945 -2 -3037
-2 l-1985 2 590 590 590 590 -325 0 -325 0 -265 -265 -265 -265 -265 265 -265
265 -325 0 -325 0 590 -590 589 -589 -1894 -3 c-1042 -2 -2833 -2 -3980 0
l-2084 3 589 589 590 590 -325 0 -325 0 -265 -265 -265 -265 -265 265 -265
265 -325 0 -325 0 590 -590z"/>
<path d="M7285 19600 l-400 -400 1070 0 1070 0 -400 400 -400 400 -270 0 -270
0 -400 -400z m897 83 c120 -120 218 -221 218 -225 0 -5 -200 -8 -445 -8 -245
0 -445 3 -445 7 0 11 434 443 445 443 5 0 108 -98 227 -217z"/>
<path d="M9355 19410 l590 -590 588 587 587 588 -322 3 -323 2 -265 -265 -265
-265 -265 265 -265 265 -325 0 -325 0 590 -590z"/>
<path d="M11265 19600 l-400 -400 1070 0 1070 0 -400 400 -400 400 -270 0
-270 0 -400 -400z m900 80 c120 -120 217 -222 214 -225 -3 -3 -206 -4 -450 -3
l-444 3 220 223 c121 122 224 222 230 222 5 0 109 -99 230 -220z"/>
<path d="M15245 19600 l-400 -400 1070 0 1070 0 -400 400 -400 400 -270 0
-270 0 -400 -400z m898 82 c119 -120 217 -222 217 -225 0 -4 -200 -7 -445 -7
-245 0 -445 3 -445 7 0 12 434 443 445 443 6 0 108 -98 228 -218z"/>
<path d="M17315 19410 l590 -590 588 587 587 588 -322 3 -323 2 -265 -265
-265 -265 -265 265 -265 265 -325 0 -325 0 590 -590z"/>
<path d="M19225 19600 l-400 -400 588 0 587 0 0 125 0 125 -282 0 -283 0 227
227 228 228 55 -55 55 -54 0 102 0 102 -188 0 -187 0 -400 -400z"/>
<path d="M0 17987 l0 -184 133 -11 c226 -20 358 -56 542 -147 131 -65 234
-138 449 -317 347 -288 498 -355 821 -365 234 -7 372 20 549 108 101 50 167
98 368 265 336 279 544 388 833 439 128 22 308 28 435 16 365 -37 578 -135
931 -429 216 -180 308 -246 413 -297 144 -70 253 -95 437 -102 364 -13 560 62
893 342 364 306 569 417 871 471 138 24 422 25 560 0 297 -53 491 -155 825
-431 256 -212 341 -268 499 -325 213 -78 539 -81 756 -7 160 55 264 122 517
333 413 344 667 448 1103 448 269 0 459 -41 660 -141 157 -79 237 -135 480
-339 207 -173 329 -249 480 -301 218 -74 542 -71 759 8 150 54 252 120 462
296 363 304 549 404 859 459 138 25 422 24 560 0 299 -54 509 -165 841 -447
214 -181 341 -262 497 -315 220 -75 543 -72 761 7 154 56 237 111 507 335 304
252 494 355 752 408 101 21 291 38 375 34 l72 -3 0 188 0 187 -10000 0 -10000
0 0 -183z"/>
<path d="M0 16225 l0 -825 10000 0 10000 0 -2 823 -3 822 -125 -1 c-191 -1
-317 -28 -465 -99 -103 -50 -192 -113 -395 -280 -333 -275 -498 -365 -783
-427 -89 -20 -131 -22 -327 -22 -193 0 -239 3 -322 22 -267 59 -456 157 -712
369 -260 215 -340 273 -451 328 -136 67 -225 92 -382 107 -220 21 -443 -16
-616 -102 -107 -54 -194 -116 -392 -281 -319 -264 -494 -359 -778 -421 -87
-19 -133 -22 -317 -23 -238 0 -319 11 -490 67 -203 66 -352 158 -627 385 -193
161 -278 221 -390 277 -166 83 -393 119 -611 98 -267 -26 -439 -108 -717 -342
-299 -252 -429 -335 -638 -409 -176 -62 -268 -75 -512 -75 -190 0 -234 3 -322
22 -284 62 -459 157 -778 421 -198 165 -285 227 -392 281 -230 115 -566 141
-829 64 -174 -50 -290 -124 -620 -397 -352 -291 -630 -397 -1042 -397 -344 0
-632 93 -893 288 -42 31 -148 116 -234 187 -275 228 -407 301 -615 341 -243
47 -515 19 -714 -74 -114 -54 -208 -119 -398 -278 -329 -275 -511 -375 -793
-436 -117 -25 -405 -35 -530 -19 -346 45 -551 149 -940 475 -227 191 -365 273
-531 315 -80 21 -221 41 -281 41 l-33 0 0 -825z"/>
<path d="M0 14735 l0 -415 58 5 c31 3 132 12 225 20 92 9 180 12 195 9 78 -19
137 -71 161 -143 7 -23 11 -178 11 -499 0 -452 -1 -467 -21 -509 -25 -51 -76
-96 -128 -112 -24 -7 -125 -11 -270 -11 l-231 0 0 -435 0 -435 10000 0 10000
0 0 1470 0 1470 -10000 0 -10000 0 0 -415z m3163 -397 c50 -12 119 -80 134
-133 10 -32 9 -140 -2 -498 -15 -511 -14 -502 -88 -561 l-39 -31 -281 -1
c-188 0 -345 -7 -470 -19 -156 -14 -196 -15 -230 -5 -59 17 -93 44 -124 98
l-28 47 -3 470 c-3 526 -4 520 67 589 69 67 63 67 571 60 250 -3 472 -10 493
-16z m2650 0 c50 -12 119 -80 134 -133 10 -32 9 -140 -2 -498 -15 -511 -14
-502 -88 -561 l-39 -31 -281 -1 c-188 0 -345 -7 -470 -19 -156 -14 -196 -15
-230 -5 -59 17 -93 44 -124 98 l-28 47 -3 470 c-3 526 -4 520 67 589 69 67 63
67 571 60 250 -3 472 -10 493 -16z m2642 11 c62 -17 130 -91 144 -157 7 -35
11 -206 11 -496 l0 -444 -28 -53 c-20 -39 -41 -62 -77 -84 l-49 -30 -473 1
c-420 1 -477 3 -517 18 -54 21 -111 81 -125 133 -12 43 11 931 25 968 13 36
54 85 87 102 28 15 73 17 347 19 198 2 359 8 435 17 154 19 172 19 220 6z
m2691 -25 c34 -16 61 -39 80 -66 38 -54 40 -95 24 -603 -12 -413 -15 -441 -58
-489 -9 -10 -35 -27 -58 -37 -36 -17 -68 -18 -300 -17 -187 2 -315 -3 -461
-17 -192 -17 -204 -18 -247 -1 -53 20 -111 83 -126 135 -6 22 -10 225 -10 500
0 452 1 466 21 508 12 24 36 55 55 69 71 54 71 54 569 48 l460 -6 51 -24z
m2650 0 c34 -16 61 -39 80 -66 38 -54 40 -95 24 -603 -12 -413 -15 -441 -58
-489 -9 -10 -35 -27 -58 -37 -36 -17 -68 -18 -300 -17 -187 2 -315 -3 -461
-17 -192 -17 -204 -18 -247 -1 -53 20 -111 83 -126 135 -6 22 -10 225 -10 500
0 452 1 466 21 508 12 24 36 55 55 69 71 54 71 54 569 48 l460 -6 51 -24z
m2625 21 c55 -20 96 -58 121 -114 19 -40 20 -74 25 -485 7 -502 5 -518 -58
-590 -71 -81 -64 -80 -592 -73 -308 3 -472 9 -492 17 -40 15 -92 66 -117 114
-20 40 -20 45 -8 490 6 248 16 468 21 488 11 45 50 93 93 115 27 15 75 17 341
19 189 2 359 8 435 17 168 19 181 19 231 2z m2657 -7 c48 -14 102 -66 125
-117 19 -43 19 -56 8 -485 -7 -243 -17 -462 -22 -487 -11 -50 -63 -110 -111
-128 -17 -6 -131 -10 -290 -9 -192 2 -315 -3 -455 -17 -157 -15 -200 -16 -233
-6 -51 15 -105 62 -132 114 -19 38 -20 63 -26 487 -6 521 -5 528 68 600 28 29
61 51 86 58 50 14 934 5 982 -10z"/>
<path d="M2414 14093 l-111 -4 -5 -377 c-3 -207 -3 -380 1 -384 21 -22 748
-52 778 -31 8 6 8 105 0 406 l-11 397 -270 -2 c-149 -1 -321 -4 -382 -5z m422
-226 c23 -26 24 -35 24 -153 0 -125 0 -126 -29 -155 -29 -29 -29 -29 -156 -29
-127 0 -127 0 -156 29 -29 29 -29 30 -29 153 0 182 8 189 198 185 122 -2 124
-2 148 -30z"/>
<path d="M5064 14093 l-111 -4 -5 -377 c-3 -207 -3 -380 1 -384 21 -22 748
-52 778 -31 8 6 8 105 0 406 l-11 397 -270 -2 c-149 -1 -321 -4 -382 -5z m422
-226 c23 -26 24 -35 24 -153 0 -125 0 -126 -29 -155 -29 -29 -29 -29 -156 -29
-127 0 -127 0 -156 29 -29 29 -29 30 -29 153 0 182 8 189 198 185 122 -2 124
-2 148 -30z"/>
<path d="M7601 14143 l-54 -4 7 -112 c3 -62 9 -241 12 -399 l7 -288 383 0 384
0 2 315 c1 173 3 348 3 388 l0 72 -110 12 c-118 13 -545 24 -634 16z m525
-266 c23 -26 24 -35 24 -153 0 -125 0 -126 -29 -155 -29 -29 -29 -29 -156 -29
-127 0 -127 0 -156 29 -29 29 -29 30 -29 153 0 182 8 189 198 185 122 -2 124
-2 148 -30z"/>
<path d="M10363 14093 l-113 -4 0 -383 0 -384 133 -13 c76 -8 242 -14 392 -14
l260 0 -2 290 c-1 160 -5 341 -9 403 l-6 112 -271 -2 c-150 -1 -323 -4 -384
-5z m406 -208 c39 -20 51 -61 51 -172 0 -103 -15 -154 -50 -173 -14 -8 -66
-10 -152 -8 -172 4 -168 0 -168 183 l0 133 31 26 c29 25 36 26 145 26 82 0
123 -4 143 -15z"/>
<path d="M13013 14093 l-113 -4 0 -383 0 -384 133 -13 c76 -8 242 -14 392 -14
l260 0 -2 290 c-1 160 -5 341 -9 403 l-6 112 -271 -2 c-150 -1 -323 -4 -384
-5z m406 -208 c39 -20 51 -61 51 -172 0 -103 -15 -154 -50 -173 -14 -8 -66
-10 -152 -8 -172 4 -168 0 -168 183 l0 133 31 26 c29 25 36 26 145 26 82 0
123 -4 143 -15z"/>
<path d="M15556 14143 l-49 -4 7 -217 c3 -119 9 -299 13 -400 l6 -182 381 2
381 3 3 386 2 385 -127 13 c-132 13 -531 22 -617 14z m504 -248 c41 -21 53
-69 48 -199 -3 -104 -4 -109 -31 -132 -26 -22 -36 -24 -148 -24 -124 0 -170
11 -183 45 -3 9 -6 74 -6 145 l0 128 31 26 c29 25 36 26 145 26 83 0 123 -4
144 -15z"/>
<path d="M18323 14093 l-113 -4 0 -384 c0 -237 4 -385 10 -385 5 0 85 -7 177
-15 106 -10 248 -14 383 -13 l215 3 -1 165 c-1 91 -5 272 -9 403 l-7 237 -272
-2 c-149 -1 -322 -4 -383 -5z m416 -219 l31 -26 0 -133 c0 -130 -1 -133 -26
-159 -26 -25 -30 -26 -155 -26 -121 0 -129 1 -156 24 -27 24 -28 27 -31 144
-4 131 8 174 51 192 12 5 75 9 139 9 111 1 118 0 147 -25z"/>
<path d="M0 14031 l0 -121 64 0 c55 0 69 -4 95 -26 l31 -26 0 -134 c0 -130 -1
-136 -25 -159 -21 -22 -33 -25 -95 -25 l-70 0 0 -100 0 -100 193 2 192 3 3
386 2 386 -152 12 c-84 6 -172 14 -195 17 l-43 5 0 -120z"/>
<path d="M0 11398 l0 -553 992 -992 993 -993 -993 0 -992 0 0 -195 0 -195
10000 0 10000 0 0 195 0 195 -1047 0 -1048 0 992 992 993 993 55 -55 55 -54 0
329 0 329 -47 48 -47 48 47 0 47 0 0 230 0 230 -10000 0 -10000 0 0 -552z
m3960 89 c0 -1 -444 -446 -988 -990 l-987 -987 -990 990 -990 990 1978 0
c1087 0 1977 -1 1977 -3z m3980 0 c0 -1 -444 -446 -988 -990 l-987 -987 -990
990 -990 990 1978 0 c1087 0 1977 -1 1977 -3z m3980 0 c0 -1 -444 -446 -988
-990 l-987 -987 -990 990 -990 990 1978 0 c1087 0 1977 -1 1977 -3z m3980 0
c0 -1 -444 -446 -988 -990 l-987 -987 -990 990 -990 990 1978 0 c1087 0 1977
-1 1977 -3z m3980 0 c0 -1 -444 -446 -988 -990 l-987 -987 -990 990 -990 990
1978 0 c1087 0 1977 -1 1977 -3z m-11832 -2627 c-1041 -3 -2828 -3 -3971 0
l-2077 5 990 990 990 990 993 -993 992 -992 995 995 995 995 993 -992 992
-993 -1892 -5z m6872 995 l995 995 993 -992 992 -993 -1827 -5 c-1006 -3
-2795 -4 -3977 -2 l-2150 3 995 995 994 994 995 -995 995 -995 995 995z"/>
<path d="M930 11112 c0 -4 239 -246 530 -537 l530 -530 530 530 c292 291 530
533 530 537 0 5 -477 8 -1060 8 -583 0 -1060 -3 -1060 -8z m1287 -479 l-227
-228 -227 228 -228 227 455 0 455 0 -228 -227z"/>
<path d="M4910 11112 c0 -4 239 -246 530 -537 l530 -530 529 529 c292 292 528
533 525 538 -6 10 -2114 11 -2114 0z m1500 -259 c0 -3 -99 -105 -221 -226
l-221 -220 -226 226 -227 227 448 0 c246 0 447 -3 447 -7z"/>
<path d="M8890 11112 c0 -4 239 -246 530 -537 l531 -530 524 526 c289 290 525
532 525 538 0 8 -290 11 -1055 11 -580 0 -1055 -3 -1055 -8z m1500 -255 c0 -1
-100 -102 -223 -225 l-222 -222 -225 225 -225 225 448 0 c246 0 447 -1 447 -3z"/>
<path d="M12866 11112 c-3 -5 233 -246 525 -538 l529 -529 530 530 c292 291
530 533 530 537 0 11 -2108 10 -2114 0z m1504 -255 c0 -1 -100 -102 -223 -225
l-222 -222 -225 225 -225 225 448 0 c246 0 447 -1 447 -3z"/>
<path d="M16846 11112 c-3 -5 233 -246 525 -538 l529 -529 530 530 c292 291
530 533 530 537 0 11 -2108 10 -2114 0z m1285 -476 l-225 -225 -25 19 c-14 11
-118 112 -231 225 l-204 205 454 0 455 0 -224 -224z"/>
<path d="M3435 9770 l-530 -530 1070 0 1070 0 -530 530 c-291 292 -534 530
-540 530 -6 0 -249 -238 -540 -530z m775 -55 l225 -225 -455 0 -455 0 225 225
c124 124 227 225 230 225 3 0 106 -101 230 -225z"/>
<path d="M7415 9770 l-530 -530 1070 0 1070 0 -530 530 c-291 292 -534 530
-540 530 -6 0 -249 -238 -540 -530z m767 -47 c120 -120 218 -221 218 -225 0
-5 -200 -8 -445 -8 -245 0 -445 3 -445 7 0 12 433 443 445 443 5 0 108 -98
227 -217z"/>
<path d="M15380 9775 l-535 -535 1070 0 1070 0 -535 535 c-294 294 -535 535
-535 535 0 0 -241 -241 -535 -535z m764 -57 l221 -223 -444 -3 c-244 -1 -447
0 -450 3 -6 7 430 445 443 445 5 0 108 -100 230 -222z"/>
<path d="M11395 9770 l-530 -530 1070 0 1070 0 -530 530 c-291 292 -534 530
-540 530 -6 0 -249 -238 -540 -530z m770 -52 l220 -223 -444 -3 c-244 -1 -446
0 -449 3 -7 7 430 445 443 445 6 0 109 -100 230 -222z"/>
<path d="M0 10123 l0 -178 227 -227 228 -228 -228 0 -227 0 0 -125 0 -125 532
0 533 0 -530 530 c-291 292 -531 530 -532 530 -2 0 -3 -80 -3 -177z"/>
<path d="M19355 9770 l-530 -530 588 0 587 0 0 125 0 125 -282 0 -283 0 227
227 228 228 55 -55 55 -54 0 185 0 185 -48 47 c-26 26 -52 47 -57 47 -6 0
-249 -238 -540 -530z"/>
<path d="M0 8027 l0 -184 129 -11 c230 -20 363 -56 546 -147 131 -65 234 -138
449 -317 347 -288 498 -355 821 -365 234 -7 372 20 549 108 101 50 167 98 368
265 312 259 486 357 742 419 245 60 573 54 806 -14 235 -68 393 -162 690 -411
338 -283 500 -356 816 -367 365 -13 575 71 920 368 311 268 546 392 839 445
138 24 422 25 560 0 296 -53 494 -157 825 -431 251 -209 340 -267 499 -325
213 -78 539 -81 756 -7 160 55 262 121 516 332 327 273 530 378 824 431 138
24 422 24 560 0 295 -53 494 -157 824 -431 192 -160 280 -224 376 -272 156
-80 306 -113 505 -113 305 0 506 74 764 283 66 54 166 135 221 179 188 153
349 246 520 302 303 98 673 98 974 0 177 -58 339 -152 532 -310 57 -46 154
-124 214 -174 190 -154 376 -242 574 -271 132 -19 364 -7 485 25 192 50 304
118 602 366 297 247 489 350 750 405 95 20 295 38 377 33 l67 -3 0 188 0 187
-10000 0 -10000 0 0 -183z"/>
<path d="M0 6266 l0 -826 10000 0 10000 0 -2 823 -3 822 -125 -1 c-191 -1
-317 -28 -465 -99 -101 -49 -192 -113 -370 -260 -205 -170 -267 -216 -377
-281 -161 -95 -322 -151 -520 -180 -149 -22 -430 -15 -564 15 -290 63 -470
164 -813 454 -209 177 -369 272 -531 317 -186 51 -458 49 -646 -6 -176 -50
-289 -121 -559 -345 -319 -264 -494 -359 -778 -421 -139 -30 -483 -33 -622 -5
-197 40 -378 115 -535 220 -85 57 -109 76 -311 243 -172 143 -235 187 -346
243 -176 88 -397 125 -621 103 -267 -26 -439 -108 -717 -342 -344 -289 -501
-381 -773 -449 -193 -49 -507 -54 -704 -12 -277 60 -456 157 -773 420 -198
165 -285 227 -392 281 -171 85 -401 124 -615 102 -298 -30 -419 -93 -834 -435
-372 -306 -660 -409 -1103 -394 -395 14 -639 117 -1011 427 -264 221 -364 287
-511 341 -273 100 -622 88 -873 -29 -114 -54 -208 -119 -398 -278 -275 -230
-431 -326 -636 -393 -169 -56 -245 -66 -487 -65 -191 0 -234 3 -325 22 -275
60 -463 163 -776 425 -89 74 -190 155 -225 180 -176 125 -343 184 -572 203
l-87 7 0 -827z"/>
<path d="M0 3720 l0 -1470 10000 0 10000 0 0 435 0 435 -147 1 c-82 0 -216 4
-300 7 -147 7 -153 8 -194 37 -26 18 -53 50 -68 78 l-25 49 13 456 c7 252 16
473 21 492 12 44 75 107 121 120 21 6 110 8 229 4 107 -4 230 -4 273 0 l77 8
0 409 0 409 -10000 0 -10000 0 0 -1470z m1835 658 c52 -13 120 -83 135 -138
17 -65 -12 -945 -33 -985 -20 -39 -65 -81 -99 -94 -17 -6 -131 -10 -290 -9
-192 2 -318 -3 -464 -17 l-201 -19 -55 27 c-80 39 -109 85 -119 190 -12 129
-11 865 2 912 14 52 92 128 145 143 49 14 921 5 979 -10z m2690 -13 c28 -16
55 -43 72 -73 l28 -47 0 -492 0 -491 -30 -43 c-19 -27 -51 -54 -85 -72 l-55
-29 -465 5 c-522 6 -522 6 -584 79 -19 21 -38 57 -44 78 -6 26 -5 189 4 495
16 515 15 509 96 562 l41 27 316 2 c210 2 356 8 436 18 153 19 213 15 270 -19z
m2595 19 c73 -12 142 -79 159 -157 8 -34 -14 -888 -24 -941 -7 -41 -50 -93
-94 -116 -35 -17 -59 -19 -312 -18 -196 1 -324 -4 -449 -16 -96 -10 -194 -15
-217 -11 -54 8 -117 54 -145 107 -23 43 -23 46 -26 513 -3 542 -5 531 85 608
53 46 71 47 543 42 245 -3 461 -8 480 -11z m2650 0 c52 -8 105 -47 137 -101
28 -47 28 -50 25 -198 -5 -283 -23 -790 -28 -810 -11 -36 -54 -85 -93 -105
-35 -17 -59 -19 -312 -18 -196 1 -324 -4 -449 -16 -96 -10 -194 -15 -217 -11
-54 8 -117 54 -145 107 -23 43 -23 46 -26 513 -3 542 -5 531 85 608 53 46 71
47 543 42 245 -3 461 -8 480 -11z m2663 5 c48 -13 102 -60 130 -113 21 -40 21
-54 25 -496 3 -327 1 -467 -8 -498 -15 -57 -79 -126 -136 -148 -41 -16 -87
-17 -508 -11 -440 5 -465 6 -503 26 -51 25 -99 80 -113 128 -8 28 -8 157 3
498 15 493 15 492 69 541 51 47 57 48 388 50 196 2 360 8 435 17 154 19 172
19 218 6z m2674 -15 c53 -19 120 -93 129 -142 9 -46 -15 -915 -26 -953 -14
-47 -47 -86 -93 -108 -39 -19 -58 -20 -307 -19 -194 2 -316 -3 -457 -17 -221
-21 -248 -17 -313 41 -71 65 -71 63 -73 590 l-2 470 30 49 c34 55 64 80 121
101 57 21 928 10 991 -12z m2650 0 c53 -19 120 -93 129 -142 9 -46 -15 -915
-26 -953 -14 -47 -47 -86 -93 -108 -39 -19 -58 -20 -307 -19 -194 2 -316 -3
-457 -17 -221 -21 -248 -17 -313 41 -71 65 -71 63 -73 590 l-2 470 30 49 c34
55 64 80 121 101 57 21 928 10 991 -12z"/>
<path d="M1083 4133 l-112 -4 -3 -377 c-2 -207 -1 -380 2 -384 12 -16 372 -39
575 -36 l210 3 -1 120 c-1 66 -5 247 -9 403 l-7 282 -272 -2 c-149 -1 -321 -4
-383 -5z m418 -222 c29 -29 29 -29 29 -156 0 -127 0 -127 -29 -156 -29 -29
-30 -29 -155 -29 -118 0 -127 1 -153 24 -28 24 -28 26 -31 148 -4 187 7 198
191 198 118 0 119 0 148 -29z"/>
<path d="M3621 4183 l-53 -4 6 -62 c3 -34 8 -197 11 -362 3 -165 8 -317 11
-337 l6 -38 379 0 379 0 2 260 c2 143 3 317 3 388 l0 127 -110 12 c-117 13
-545 24 -634 16z m520 -262 c29 -29 29 -30 29 -151 0 -184 -5 -189 -183 -190
l-129 0 -29 29 c-29 29 -29 30 -29 148 0 74 5 127 13 143 21 41 52 50 180 50
118 0 119 0 148 -29z"/>
<path d="M6388 4133 l-108 -4 0 -173 c0 -95 -3 -267 -7 -383 l-6 -210 114 -12
c133 -15 659 -26 675 -14 8 6 7 120 -2 403 -6 217 -12 396 -13 398 -1 3 -511
-1 -653 -5z m424 -221 c22 -21 23 -30 23 -158 l0 -136 -28 -24 c-26 -22 -36
-24 -148 -24 -183 0 -188 5 -189 183 l0 129 30 30 30 30 130 -4 c119 -3 131
-5 152 -26z"/>
<path d="M9038 4133 l-108 -4 0 -173 c0 -95 -3 -267 -7 -383 l-6 -210 114 -12
c133 -15 659 -26 675 -14 8 6 7 120 -2 403 -6 217 -12 396 -13 398 -1 3 -511
-1 -653 -5z m424 -221 c22 -21 23 -30 23 -158 l0 -136 -28 -24 c-26 -22 -36
-24 -148 -24 -183 0 -188 5 -189 183 l0 129 30 30 30 30 130 -4 c119 -3 131
-5 152 -26z"/>
<path d="M11576 4183 l-49 -4 6 -162 c4 -89 10 -269 13 -399 l7 -238 383 0
384 0 2 370 c1 204 2 378 2 388 1 14 -15 19 -109 29 -117 13 -557 24 -639 16z
m526 -261 c22 -21 23 -30 23 -158 l0 -136 -28 -24 c-26 -23 -35 -24 -153 -24
-125 0 -126 0 -155 29 -29 29 -29 30 -29 153 0 181 8 189 197 185 113 -2 124
-4 145 -25z"/>
<path d="M14343 4133 l-113 -4 0 -384 c0 -237 4 -385 10 -385 5 0 85 -7 177
-15 106 -10 248 -14 383 -13 l215 3 -2 230 c-1 127 -5 308 -9 403 l-6 172
-272 -2 c-149 -1 -322 -4 -383 -5z m400 -205 c42 -22 46 -37 47 -176 0 -128
-1 -134 -25 -157 -23 -24 -30 -25 -150 -25 -71 0 -135 5 -147 11 -33 18 -48
70 -48 172 0 110 12 152 49 172 33 18 242 21 274 3z"/>
<path d="M16993 4133 l-113 -4 0 -384 c0 -237 4 -385 10 -385 5 0 85 -7 177
-15 106 -10 248 -14 383 -13 l215 3 -2 230 c-1 127 -5 308 -9 403 l-6 172
-272 -2 c-149 -1 -322 -4 -383 -5z m400 -205 c42 -22 46 -37 47 -176 0 -128
-1 -134 -25 -157 -23 -24 -30 -25 -150 -25 -71 0 -135 5 -147 11 -33 18 -48
70 -48 172 0 110 12 152 49 172 33 18 242 21 274 3z"/>
<path d="M19536 4183 l-49 -4 7 -262 c3 -144 9 -324 13 -399 l6 -138 243 0
244 0 0 100 0 100 -115 0 c-110 0 -117 1 -140 25 -24 23 -25 29 -25 157 1 181
8 188 174 188 l106 0 0 114 0 113 -52 7 c-54 6 -325 5 -412 -1z"/>
<path d="M0 1437 l0 -552 443 -443 442 -442 325 0 325 0 -765 765 -765 765
1980 0 1980 0 -765 -765 -765 -765 330 0 330 0 442 442 443 443 443 -443 442
-442 325 0 325 0 -765 765 -765 765 1980 0 1980 0 -765 -765 -765 -765 325 0
325 0 445 445 445 445 445 -445 445 -445 325 0 325 0 -765 765 -765 765 1980
0 1980 0 -765 -765 -765 -765 325 0 325 0 445 445 445 445 445 -445 445 -445
325 0 325 0 -765 765 -765 765 1980 0 1980 0 -765 -765 -765 -765 325 0 325 0
445 445 445 445 445 -445 445 -445 325 0 325 0 -765 765 -765 765 1980 0 1980
0 -765 -765 -765 -765 325 0 325 0 442 442 443 443 55 -55 55 -54 0 329 0 329
-47 48 -47 48 47 0 47 0 0 230 0 230 -10000 0 -10000 0 0 -553z"/>
<path d="M930 1152 c0 -4 239 -246 530 -537 l530 -530 530 530 c292 291 530
533 530 537 0 5 -477 8 -1060 8 -583 0 -1060 -3 -1060 -8z m1287 -479 l-227
-228 -227 228 -228 227 455 0 455 0 -228 -227z"/>
<path d="M4910 1152 c0 -4 239 -246 530 -537 l530 -530 529 529 c292 292 528
533 525 538 -6 10 -2114 11 -2114 0z m1500 -260 c0 -4 -99 -106 -220 -227
l-220 -220 -228 228 -227 227 448 0 c246 0 447 -3 447 -8z"/>
<path d="M8890 1152 c0 -4 237 -244 528 -535 l527 -527 528 528 c290 290 527
530 527 535 0 4 -475 7 -1055 7 -580 0 -1055 -3 -1055 -8z m1500 -255 c0 -1
-100 -102 -223 -225 l-222 -222 -225 225 -225 225 448 0 c246 0 447 -1 447 -3z"/>
<path d="M12870 1153 c0 -5 236 -246 524 -538 l524 -530 531 530 c292 291 531
533 531 537 0 5 -475 8 -1055 8 -580 0 -1055 -3 -1055 -7z m1500 -256 c0 -1
-100 -102 -223 -225 l-222 -222 -225 225 -225 225 448 0 c246 0 447 -1 447 -3z"/>
<path d="M16846 1152 c-3 -5 233 -246 525 -538 l529 -529 530 530 c292 291
530 533 530 537 0 11 -2108 10 -2114 0z m1281 -479 l-227 -228 -227 228 -228
227 455 0 455 0 -228 -227z"/>
<path d="M15740 175 l-175 -175 350 0 350 0 -175 175 c-96 96 -175 175 -175
175 0 0 -79 -79 -175 -175z"/>
<path d="M0 170 l0 -170 172 0 173 0 -170 170 c-93 94 -171 170 -172 170 -2 0
-3 -76 -3 -170z"/>
<path d="M3795 170 l-170 -170 350 0 350 0 -170 170 c-93 94 -174 170 -180
170 -6 0 -87 -76 -180 -170z"/>
<path d="M7775 170 l-170 -170 350 0 350 0 -170 170 c-93 94 -174 170 -180
170 -6 0 -87 -76 -180 -170z"/>
<path d="M11755 170 l-170 -170 350 0 350 0 -170 170 c-93 94 -174 170 -180
170 -6 0 -87 -76 -180 -170z"/>
<path d="M19715 170 l-170 -170 228 0 227 0 0 123 0 123 -48 47 c-26 26 -52
47 -57 47 -6 0 -87 -76 -180 -170z"/>
</g>
</svg>
