<svg width="173" height="126" viewBox="0 0 173 126" fill="none" xmlns="http://www.w3.org/2000/svg">
<path d="M2.79053 8.03222C2.79053 4.71851 5.47682 2.03223 8.79053 2.03223H164.21C167.524 2.03223 170.21 4.71852 170.21 8.03223V63V117.968C170.21 121.281 167.524 123.968 164.21 123.968H8.79052C5.47681 123.968 2.79053 121.281 2.79053 117.968V8.03222Z" fill="#611F69"/>
<path d="M35.7344 82.125H29.9688V78.75H35.7344C37.3906 78.75 38.7812 78.125 39.9062 76.875C41.0312 75.625 41.5938 73.9688 41.5938 71.9062V21.375H44.9688V71.9062C44.9688 74.875 44.0781 77.3281 42.2969 79.2656C40.5156 81.1719 38.3281 82.125 35.7344 82.125ZM35.7344 88.875H29.9688V85.5H35.7344C39.2344 85.5 42.2031 84.1719 44.6406 81.5156C47.1094 78.8594 48.3438 75.6562 48.3438 71.9062V21.375H51.7188V71.9062C51.7188 76.5938 50.1562 80.5938 47.0312 83.9062C43.9375 87.2188 40.1719 88.875 35.7344 88.875ZM35.7344 95.625H29.9688V92.25H35.7344C41.1094 92.25 45.6719 90.2656 49.4219 86.2969C53.2031 82.3281 55.0938 77.5312 55.0938 71.9062V21.375H58.4688V71.9062C58.4688 76.1875 57.4531 80.1562 55.4219 83.8125C53.4219 87.4375 50.6719 90.3125 47.1719 92.4375C43.6719 94.5625 39.8594 95.625 35.7344 95.625ZM35.7344 102.375H29.9688V99H35.7344C39.2969 99 42.6875 98.2812 45.9062 96.8438C49.125 95.4062 51.8906 93.4844 54.2031 91.0781C56.5469 88.6406 58.4062 85.75 59.7812 82.4062C61.1562 79.0625 61.8438 75.5625 61.8438 71.9062V21.375H65.2188V71.9062C65.2188 76.0312 64.4375 79.9688 62.875 83.7188C61.3438 87.4688 59.25 90.7188 56.5938 93.4688C53.9688 96.1875 50.8281 98.3438 47.1719 99.9375C43.5469 101.562 39.7344 102.375 35.7344 102.375ZM99.8125 59.9531L98.125 63.6562L77.875 21.375H81.25L99.8125 59.9531ZM103.188 52.5469L101.453 56.25L84.625 21.375H88L103.188 52.5469ZM106.562 45.1875L104.875 48.8906L91.375 21.375H94.75L106.562 45.1875ZM102.297 72.8438L126.719 21.375H130.094L105.672 72.8438V99H102.297V72.8438ZM109.047 72.8438L133.469 21.375H136.844L112.422 72.8438V99H109.047V72.8438ZM115.797 72.8438L140.219 21.375H143.594L119.172 72.8438V99H115.797V72.8438ZM97.2344 69.2812L119.969 21.375H123.344L98.9219 72.8438V99H95.5469V72.8438L71.125 21.375H74.5L97.2344 69.2812Z" fill="#D9AC61"/>
</svg>
