<svg width="88" height="66" viewBox="0 0 88 66" fill="none" xmlns="http://www.w3.org/2000/svg">
<path d="M1.41943 7.06451C1.41943 3.7508 4.10573 1.06451 7.41943 1.06451H80.5807C83.8944 1.06451 86.5807 3.75081 86.5807 7.06451V33V58.9355C86.5807 62.2492 83.8944 64.9355 80.5807 64.9355H7.41943C4.10572 64.9355 1.41943 62.2492 1.41943 58.9355V7.06451Z" fill="#611F69"/>
<path d="M18.6172 42.5625H15.7344V40.875H18.6172C19.4453 40.875 20.1406 40.5625 20.7031 39.9375C21.2656 39.3125 21.5469 38.4844 21.5469 37.4531V12.1875H23.2344V37.4531C23.2344 38.9375 22.7891 40.1641 21.8984 41.1328C21.0078 42.0859 19.9141 42.5625 18.6172 42.5625ZM18.6172 45.9375H15.7344V44.25H18.6172C20.3672 44.25 21.8516 43.5859 23.0703 42.2578C24.3047 40.9297 24.9219 39.3281 24.9219 37.4531V12.1875H26.6094V37.4531C26.6094 39.7969 25.8281 41.7969 24.2656 43.4531C22.7188 45.1094 20.8359 45.9375 18.6172 45.9375ZM18.6172 49.3125H15.7344V47.625H18.6172C21.3047 47.625 23.5859 46.6328 25.4609 44.6484C27.3516 42.6641 28.2969 40.2656 28.2969 37.4531V12.1875H29.9844V37.4531C29.9844 39.5938 29.4766 41.5781 28.4609 43.4062C27.4609 45.2188 26.0859 46.6562 24.3359 47.7188C22.5859 48.7812 20.6797 49.3125 18.6172 49.3125ZM18.6172 52.6875H15.7344V51H18.6172C20.3984 51 22.0938 50.6406 23.7031 49.9219C25.3125 49.2031 26.6953 48.2422 27.8516 47.0391C29.0234 45.8203 29.9531 44.375 30.6406 42.7031C31.3281 41.0312 31.6719 39.2812 31.6719 37.4531V12.1875H33.3594V37.4531C33.3594 39.5156 32.9688 41.4844 32.1875 43.3594C31.4219 45.2344 30.375 46.8594 29.0469 48.2344C27.7344 49.5938 26.1641 50.6719 24.3359 51.4688C22.5234 52.2812 20.6172 52.6875 18.6172 52.6875ZM50.6562 31.4766L49.8125 33.3281L39.6875 12.1875H41.375L50.6562 31.4766ZM52.3438 27.7734L51.4766 29.625L43.0625 12.1875H44.75L52.3438 27.7734ZM54.0312 24.0938L53.1875 25.9453L46.4375 12.1875H48.125L54.0312 24.0938ZM51.8984 37.9219L64.1094 12.1875H65.7969L53.5859 37.9219V51H51.8984V37.9219ZM55.2734 37.9219L67.4844 12.1875H69.1719L56.9609 37.9219V51H55.2734V37.9219ZM58.6484 37.9219L70.8594 12.1875H72.5469L60.3359 37.9219V51H58.6484V37.9219ZM49.3672 36.1406L60.7344 12.1875H62.4219L50.2109 37.9219V51H48.5234V37.9219L36.3125 12.1875H38L49.3672 36.1406Z" fill="#D9AC61"/>
</svg>
