<svg width="284" height="207" viewBox="0 0 284 207" fill="none" xmlns="http://www.w3.org/2000/svg">
<path d="M4.58105 9.33613C4.58105 6.02242 7.26735 3.33612 10.5811 3.33612H273.42C276.733 3.33612 279.42 6.02241 279.42 9.33612V103.422V197.508C279.42 200.821 276.733 203.508 273.42 203.508H10.5811C7.26734 203.508 4.58105 200.821 4.58105 197.508V9.33613Z" fill="#611F69"/>
<path d="M74.3125 129.5H66.625V125H74.3125C76.5208 125 78.375 124.167 79.875 122.5C81.375 120.833 82.125 118.625 82.125 115.875V48.5H86.625V115.875C86.625 119.833 85.4375 123.104 83.0625 125.688C80.6875 128.229 77.7708 129.5 74.3125 129.5ZM74.3125 138.5H66.625V134H74.3125C78.9792 134 82.9375 132.229 86.1875 128.688C89.4792 125.146 91.125 120.875 91.125 115.875V48.5H95.625V115.875C95.625 122.125 93.5417 127.458 89.375 131.875C85.25 136.292 80.2292 138.5 74.3125 138.5ZM74.3125 147.5H66.625V143H74.3125C81.4792 143 87.5625 140.354 92.5625 135.062C97.6042 129.771 100.125 123.375 100.125 115.875V48.5H104.625V115.875C104.625 121.583 103.271 126.875 100.562 131.75C97.8958 136.583 94.2292 140.417 89.5625 143.25C84.8958 146.083 79.8125 147.5 74.3125 147.5ZM74.3125 156.5H66.625V152H74.3125C79.0625 152 83.5833 151.042 87.875 149.125C92.1667 147.208 95.8542 144.646 98.9375 141.438C102.062 138.188 104.542 134.333 106.375 129.875C108.208 125.417 109.125 120.75 109.125 115.875V48.5H113.625V115.875C113.625 121.375 112.583 126.625 110.5 131.625C108.458 136.625 105.667 140.958 102.125 144.625C98.625 148.25 94.4375 151.125 89.5625 153.25C84.7292 155.417 79.6458 156.5 74.3125 156.5ZM159.75 99.9375L157.5 104.875L130.5 48.5H135L159.75 99.9375ZM164.25 90.0625L161.938 95L139.5 48.5H144L164.25 90.0625ZM168.75 80.25L166.5 85.1875L148.5 48.5H153L168.75 80.25ZM163.062 117.125L195.625 48.5H200.125L167.562 117.125V152H163.062V117.125ZM172.062 117.125L204.625 48.5H209.125L176.562 117.125V152H172.062V117.125ZM181.062 117.125L213.625 48.5H218.125L185.562 117.125V152H181.062V117.125ZM156.312 112.375L186.625 48.5H191.125L158.562 117.125V152H154.062V117.125L121.5 48.5H126L156.312 112.375Z" fill="#D9AC61"/>
</svg>
