<svg xmlns="http://www.w3.org/2000/svg" xmlns:xlink="http://www.w3.org/1999/xlink" version="1.1" x="0px" y="0px" viewBox="0 0 160 160" style="enable-background:new 0 0 128 128;color:#d9ac61" xml:space="preserve">
    <g>
        <path d="M46.724,77.974c0.537-0.124,1.075,0.207,1.202,0.745c0.016,0.072,1.511,6.345,3.863,10.235C53.566,82.848,56.52,79,60,79   l3.006-0.005c5.253-0.022,12.76-0.045,21.185,0.808c4.693-2.83,8.759-6.005,12.081-9.446c0.028-0.029,0.059-0.058,0.091-0.083   c20.758-16.785,28.056-56.233,28.632-63.304c0.09-1.093-0.81-2.468-2.139-3.27c-0.962-0.581-2.933-1.328-5.328,0.194   c-1.108,0.704-2.202,1.364-3.266,1.98c1.094,1.405,2.98,3.627,4.186,4.229c0.494,0.247,0.694,0.848,0.447,1.342   c-0.176,0.351-0.528,0.553-0.896,0.553c-0.15,0-0.303-0.034-0.446-0.105c-1.755-0.878-4.072-3.741-5.052-5.022   c-2.294,1.27-4.362,2.306-5.936,3.053c-1.608,0.765-3.671,1.689-5.354,2.052c-3.698,0.795-7.266,1.119-11.234,1.022   c-8.918-0.215-16.644,1.204-23.325,3.657c0.668,2.464,3.818,13.305,9.12,19.705c0.352,0.425,0.293,1.056-0.133,1.408   C75.451,37.925,75.226,38,75.001,38c-0.288,0-0.573-0.123-0.771-0.362c-5.474-6.609-8.645-17.272-9.453-20.24   c-12.88,5.259-21.669,14.385-27.417,22.798c0.005,0.017,0.018,0.028,0.023,0.045c0.025,0.093,2.575,9.302,7.325,14.052   c0.391,0.391,0.391,1.023,0,1.414C44.512,55.902,44.256,56,44,56s-0.512-0.098-0.707-0.293c-3.936-3.936-6.379-10.382-7.354-13.353   c-3.624,5.717-5.848,10.896-7.001,13.995c-0.239,0.641-0.753,1.609-1.249,2.546c-0.312,0.589-0.607,1.144-0.777,1.519   c-1.225,2.704-2.522,5.312-3.872,7.811c0.002,0.007,0.007,0.013,0.008,0.02c0.02,0.103,1.957,10.346,7.66,16.049   c0.391,0.391,0.391,1.023,0,1.414C30.512,85.902,30.256,86,30,86s-0.512-0.098-0.707-0.293c-4.517-4.517-6.784-11.383-7.702-14.887   c-5.234,9.117-11.172,16.52-16.987,21.023c-1.286,0.995-1.839,2.418-1.409,3.624c0.371,1.042,1.359,1.607,2.771,1.585   c16.928-0.432,32.071-2.093,45.048-4.923c0.041-0.205,0.083-0.409,0.126-0.609c-3.157-3.921-5.08-11.999-5.162-12.344   C45.853,78.638,46.187,78.1,46.724,77.974z M99.673,26.055c0.521-0.18,1.091,0.097,1.272,0.618   c0.037,0.107,3.789,10.826,10.304,19.136c0.341,0.435,0.265,1.063-0.17,1.404c-0.184,0.144-0.4,0.213-0.616,0.213   c-0.297,0-0.591-0.132-0.788-0.383c-6.727-8.58-10.464-19.266-10.62-19.716C98.874,26.805,99.151,26.235,99.673,26.055z    M67.804,48.02c0.548-0.111,1.069,0.242,1.177,0.784c0.933,4.662,5.133,12.56,9.669,16.437c0.42,0.358,0.47,0.989,0.11,1.409   C78.562,66.881,78.282,67,78,67c-0.23,0-0.461-0.079-0.649-0.24c-4.92-4.204-9.313-12.476-10.331-17.563   C66.911,48.654,67.263,48.128,67.804,48.02z"/><path d="M123.848,89.407c-0.476-0.419-1.012-0.561-1.645-0.428c-5.25,1.092-11.274-0.946-11.528-1.034   c-3.165-1.263-6.389-2.289-9.61-3.137c0.214,2.946,0.793,12.474-0.073,19.316c-0.064,0.506-0.494,0.875-0.991,0.875   c-0.042,0-0.084-0.003-0.126-0.008c-0.549-0.069-0.937-0.569-0.867-1.117c0.914-7.229,0.141-17.935,0.013-19.572   c-6.553-1.569-13.026-2.405-18.911-2.839c0.239,2.514,0.692,8.669-0.13,12.734C79.884,94.673,79.467,95,79.001,95   c-0.065,0-0.133-0.006-0.199-0.02c-0.541-0.11-0.892-0.638-0.782-1.179c0.799-3.951,0.278-10.322,0.066-12.479   c-5.388-0.326-10.17-0.34-13.959-0.33C67.652,84.623,70,92.89,70,103c0,10.103-2.345,18.365-5.867,22h7.775   c2.774-5.723,2.101-15.827,2.094-15.93c-0.039-0.551,0.376-1.029,0.927-1.067c0.568-0.054,1.028,0.376,1.067,0.927   c0.03,0.42,0.655,9.823-1.899,16.07h0.8c16.257,0.626,27.532-3.239,35.221-8.631c0.909-3.64-0.1-11.158-0.111-11.234   c-0.074-0.547,0.309-1.051,0.856-1.126c0.548-0.072,1.051,0.309,1.126,0.855c0.037,0.272,0.758,5.679,0.404,9.787   c8.962-7.311,12.198-16.655,12.608-21.732C125.115,91.528,124.65,90.116,123.848,89.407z"/><path d="M60,81c-3.863,0-8,8.84-8,22s4.137,22,8,22s8-8.84,8-22S63.863,81,60,81z M56.98,110.802   c0.109,0.541-0.241,1.069-0.782,1.179c-0.066,0.014-0.134,0.02-0.199,0.02c-0.466,0-0.883-0.327-0.979-0.802   c-2.044-10.106-0.074-18.107,0.011-18.443c0.136-0.535,0.677-0.86,1.214-0.725c0.535,0.136,0.86,0.679,0.726,1.214   C56.95,93.322,55.03,101.163,56.98,110.802z M62,120c-0.101,0-0.203-0.015-0.304-0.048c-0.526-0.168-0.817-0.73-0.648-1.257   c5.844-18.302-0.842-30.072-0.91-30.189c-0.278-0.477-0.119-1.089,0.356-1.367c0.475-0.279,1.088-0.122,1.367,0.354   c0.298,0.506,7.225,12.606,1.091,31.812C62.817,119.729,62.424,120,62,120z"/>
    </g>
    <text x="0" y="148" fill="#000000" font-size="5px" font-weight="bold" font-family="'Helvetica Neue', Helvetica, Arial-Unicode, Arial, Sans-serif">
        JustYams | Transcription Service
    </text>
</svg>